<svg width="482" height="536" viewBox="0 0 482 536" fill="none" xmlns="http://www.w3.org/2000/svg">
<path fill-rule="evenodd" clip-rule="evenodd" d="M5.87036 261.501C2.49282 262.381 2.36524e-05 265.449 2.33333e-05 269.098C2.29543e-05 273.433 3.51848 276.948 7.85872 276.948L8.32218 276.948L265.357 533.701C268.426 536.766 273.402 536.766 276.471 533.701C279.54 530.635 279.54 525.665 276.471 522.599L30.5499 276.948L474.141 276.948C478.482 276.948 482 273.433 482 269.098C482 264.762 478.482 261.248 474.141 261.248L28.3518 261.248L276.471 13.4009C279.54 10.3353 279.54 5.36488 276.471 2.29925C273.402 -0.766383 268.426 -0.766383 265.357 2.29925L5.87036 261.501Z" fill="white"/>
</svg>
