<?xml version="1.0" encoding="utf-8"?>
<!-- Svg Vector Icons : http://www.onlinewebfonts.com/icon -->
<!DOCTYPE svg PUBLIC "-//W3C//DTD SVG 1.1//EN" "http://www.w3.org/Graphics/SVG/1.1/DTD/svg11.dtd">
<svg version="1.1" xmlns="http://www.w3.org/2000/svg" xmlns:xlink="http://www.w3.org/1999/xlink" x="0px" y="0px" viewBox="0 0 1000 1000" enable-background="new 0 0 1000 1000" xml:space="preserve">
<metadata> Svg Vector Icons : http://www.onlinewebfonts.com/icon </metadata>
<g><g transform="translate(0.000000,511.000000) scale(0.100000,-0.100000)"><path d="M4796.8,4961.3c-149.4-79.4-3561.6-3652.7-3599-3767c-77-231.1,28-483.1,240.4-583.5c119-53.7,133-56,793.5-56h669.9V-476.8c0-648.8,9.3-1066.6,25.7-1122.6c30.3-114.4,147-245.1,266.1-298.8c88.7-39.7,200.7-44.3,1804.2-44.3c1885.8,0,1801.8-7,1960.5,147c137.7,133,144.7,189,144.7,1328V554.8h672.2c658.2,0,672.2,2.3,791.2,56c161,77,245.1,203.1,259.1,387.5c7,95.7-2.3,158.7-30.3,219.4c-44.4,93.4-3384.3,3601.3-3531.3,3708.7C5132.9,5022,4934.5,5038.3,4796.8,4961.3z M6127.1,2678.7l1106.3-1155.3l-361.8-11.7c-289.4-9.3-382.8-21-450.4-56c-114.4-56-219.4-177.4-249.7-287.1c-16.3-56-25.7-473.8-25.7-1120.3V-985.6H5002.2H3858.5V43.7c0,1106.3-4.7,1148.3-119,1288.3c-116.7,142.4-198.4,165.7-606.8,179.7l-364.1,11.7l1111,1162.3c611.5,637.2,1118,1157.7,1127.3,1155.3C5016.2,3836.3,5520.3,3313.5,6127.1,2678.7z"/><path d="M3193.3-2267c-119-53.7-235.7-184.4-266.1-298.7c-16.3-56-25.7-422.4-25.7-963.9c0-966.3,2.3-982.6,154-1125c149.4-140,84-135.4,1946.5-135.4c1862.5,0,1797.1-4.7,1946.5,135.4c151.7,142.4,154,158.7,154,1127.3c0,737.5-4.7,893.9-37.3,984.9c-44.4,128.4-179.7,259.1-305.8,294.1c-58.3,16.3-658.2,25.7-1780.8,25.7C3391.7-2222.6,3279.7-2227.3,3193.3-2267z M6145.8-3506.3v-326.8H5002.2H3858.5v326.8v326.7h1143.6h1143.6V-3506.3z"/></g></g>
</svg>