<svg width="200" height="200" viewBox="0 0 200 200" fill="none" xmlns="http://www.w3.org/2000/svg">
<path d="M127.043 8.5445e-06C113.764 -0.00659413 100.766 3.81355 89.6121 11.001C78.4581 18.1885 69.6231 28.4372 64.1696 40.5146C58.716 52.5921 56.8762 65.9839 58.8713 79.0797C60.8665 92.1754 66.6116 104.417 75.4158 114.333L8 190.667L17.3563 199L84.6051 123C93.2553 129.75 103.397 134.34 114.185 136.388C124.974 138.436 136.097 137.883 146.628 134.775C157.158 131.667 166.792 126.093 174.727 118.519C182.661 110.945 188.667 101.59 192.243 91.2318C195.819 80.8738 196.863 69.8134 195.286 58.9717C193.71 48.1301 189.559 37.8212 183.18 28.9036C176.801 19.986 168.379 12.718 158.614 7.70487C148.849 2.69175 138.025 0.0786925 127.043 0.0833419V8.5445e-06ZM127.043 125C112.088 125 97.7449 119.074 87.17 108.525C76.5951 97.9758 70.6541 83.6684 70.6541 68.75C70.6541 53.8316 76.5951 39.5242 87.17 28.9753C97.7449 18.4263 112.088 12.5 127.043 12.5C141.998 12.5 156.341 18.4263 166.916 28.9753C177.491 39.5242 183.432 53.8316 183.432 68.75C183.432 83.6684 177.491 97.9758 166.916 108.525C156.341 119.074 141.998 125 127.043 125Z" fill="#315390"/>
</svg>
