<svg width="20094" height="11310" viewBox="0 0 20094 11310" fill="none" xmlns="http://www.w3.org/2000/svg">
<path d="M17866 -16H18987V1105H17866V-16Z" fill="#E9EFF6"/>
<path d="M13399 10069H14520V11493H13399V10069Z" fill="#E9EFF6"/>
<path d="M14520 1105H15641V2226H14520V1105Z" fill="#DFEAF5"/>
<path d="M0 10074H1121V11278H0V10074Z" fill="#E9EFF6"/>
<path d="M1121 10074H2236V11278H1121V10074Z" fill="#E9EFF6"/>
<path d="M18986 1105H20107V2226H18986V1105Z" fill="#E9EFF6"/>
<path d="M3356 8943H4477V10064H3356V8943Z" fill="#E9EFF6"/>
<path d="M1121 7828H2242V8949H1121V7828Z" fill="#DFEAF5"/>
<path d="M2241 6707H3362V7828H2241V6707Z" fill="#E9EFF6"/>
<path d="M10053 5602H12278V7827H10053V5602Z" fill="#E9EFF6"/>
<path opacity="0.9" fill-rule="evenodd" clip-rule="evenodd" d="M19535.5 591.472H10343.5H1151.47V10613.5H19535.5V591.472ZM1141 581V10624H19546V581H10343.5H1141Z" fill="#ECECEC"/>
<path d="M5587 6707H6708V7828H5587V6707Z" fill="white"/>
<path fill-rule="evenodd" clip-rule="evenodd" d="M6697.52 6717.48H5597.48V7817.52H6697.52V6717.48ZM5587 6707V7828H6708V6707H5587Z" fill="#E7E7E7"/>
<path d="M12289 6702H13410V7823H12289V6702Z" fill="white"/>
<path fill-rule="evenodd" clip-rule="evenodd" d="M13399.5 6712.48H12299.5V7812.52H13399.5V6712.48ZM12289 6702V7823H13410V6702H12289Z" fill="#E7E7E7"/>
<path d="M12289 5592H13410V6713H12289V5592Z" fill="white"/>
<path fill-rule="evenodd" clip-rule="evenodd" d="M13399.5 5602.48H12299.5V6702.52H13399.5V5602.48ZM12289 5592V6713H13410V5592H12289Z" fill="#E7E7E7"/>
<path fill-rule="evenodd" clip-rule="evenodd" d="M6697.52 1115.48H5597.48V2215.52H6697.52V1115.48ZM5587 1105V2226H6708V1105H5587Z" fill="#E7E7E7"/>
<path fill-rule="evenodd" clip-rule="evenodd" d="M14509.5 1115.47H12299.5V3325.53H14509.5V1115.47ZM12289 1105V3336H14520V1105H12289Z" fill="#E7E7E7"/>
<path fill-rule="evenodd" clip-rule="evenodd" d="M17855.5 1115.47H2251.47V10058.5H17855.5V1115.47ZM2241 1105V10069H17866V1105H2241Z" fill="#E7E7E7"/>
<path d="M2236 8948H3357V10069H2236V8948Z" fill="#DFEAF5"/>
<path d="M1121 -16H2242V1105H1121V-16Z" fill="#DFEAF5"/>
<mask id="mask0_301_164" style="mask-type:alpha" maskUnits="userSpaceOnUse" x="12284" y="3335" width="2236" height="2241">
<path d="M12284 3335H14520V5576H12284V3335Z" fill="#D9D9D9"/>
</mask>
<g mask="url(#mask0_301_164)">
<path fill-rule="evenodd" clip-rule="evenodd" d="M11360.9 3326.3L11357.6 3323L10225 4455.7L10228.3 4459L11360.9 3326.3ZM11449.3 3326.3L11446 3323L10313.5 4455.7L10316.8 4459L11449.3 3326.3ZM11534.5 3323L11537.8 3326.3L10405.2 4459L10401.9 4455.7L11534.5 3323ZM11626.3 3326.3L11623 3323L10490.4 4455.7L10493.7 4459L11626.3 3326.3ZM11711.5 3323L11714.8 3326.3L10582.2 4459L10578.9 4455.7L11711.5 3323ZM11803.2 3326.3L11799.9 3323L10667.4 4455.7L10670.7 4459L11803.2 3326.3ZM11888.4 3323L11891.7 3326.3L10759.1 4459L10755.8 4455.7L11888.4 3323ZM11980.2 3326.3L11976.9 3323L10844.3 4455.7L10847.6 4459L11980.2 3326.3ZM12065.3 3323L12068.7 3326.3L10936.1 4459L10932.8 4455.7L12065.3 3323ZM12157.1 3326.3L12153.8 3323L11021.2 4455.7L11024.5 4459L12157.1 3326.3ZM12242.3 3323L12245.6 3326.3L11113 4459L11109.7 4455.7L12242.3 3323ZM12334.1 3326.3L12330.8 3323L11198.2 4455.7L11201.5 4459L12334.1 3326.3ZM12419.2 3323L12422.5 3326.3L11290 4459L11286.7 4455.7L12419.2 3323ZM12511 3326.3L12507.7 3323L11375.1 4455.7L11378.4 4459L12511 3326.3ZM12596.2 3323L12599.5 3326.3L11466.9 4459L11463.6 4455.7L12596.2 3323ZM12688 3326.3L12684.7 3323L11552.1 4455.7L11555.4 4459L12688 3326.3ZM12773.1 3323L12776.4 3326.3L11643.9 4459L11640.6 4455.7L12773.1 3323ZM12864.9 3326.3L12861.6 3323L11729 4455.7L11732.3 4459L12864.9 3326.3ZM12950.1 3323L12953.4 3326.3L11820.8 4459L11817.5 4455.7L12950.1 3323ZM13041.8 3326.3L13038.5 3323L11906 4455.7L11909.3 4459L13041.8 3326.3ZM13127 3323L13130.3 3326.3L11997.7 4459L11994.4 4455.7L13127 3323ZM13218.8 3326.3L13215.5 3323L12082.9 4455.7L12086.2 4459L13218.8 3326.3ZM13304 3323L13307.3 3326.3L12174.7 4459L12171.4 4455.7L13304 3323ZM13395.7 3326.3L13392.4 3323L12259.9 4455.7L12263.2 4459L13395.7 3326.3ZM13480.9 3323L13484.2 3326.3L12351.6 4459L12348.3 4455.7L13480.9 3323ZM13572.7 3326.3L13569.4 3323L12436.8 4455.7L12440.1 4459L13572.7 3326.3ZM13657.8 3323L13661.1 3326.3L12528.6 4459L12525.3 4455.7L13657.8 3323ZM13749.6 3326.3L13746.3 3323L12613.7 4455.7L12617 4459L13749.6 3326.3ZM13834.8 3323L13838.1 3326.3L12705.5 4459L12702.2 4455.7L13834.8 3323ZM13926.6 3326.3L13923.3 3323L12790.7 4455.7L12794 4459L13926.6 3326.3ZM14011.7 3323L14015 3326.3L12882.5 4459L12879.2 4455.7L14011.7 3323ZM14103.5 3326.3L14100.2 3323L12967.6 4455.7L12970.9 4459L14103.5 3326.3ZM14188.7 3323L14192 3326.3L13059.4 4459L13056.1 4455.7L14188.7 3323ZM14280.4 3326.3L14277.1 3323L13144.6 4455.7L13147.9 4459L14280.4 3326.3ZM14365.6 3323L14368.9 3326.3L13236.3 4459L13233 4455.7L14365.6 3323ZM14457.4 3326.3L14454.1 3323L13321.5 4455.7L13324.8 4459L14457.4 3326.3ZM14542.6 3323L14545.9 3326.3L13413.3 4459L13410 4455.7L14542.6 3323ZM14634.3 3326.3L14631 3323L13498.5 4455.7L13501.8 4459L14634.3 3326.3ZM14719.5 3323L14722.8 3326.3L13590.2 4459L13586.9 4455.7L14719.5 3323ZM14811.3 3326.3L14808 3323L13675.4 4455.7L13678.7 4459L14811.3 3326.3ZM14896.5 3323L14899.8 3326.3L13767.2 4459L13763.9 4455.7L14896.5 3323ZM14988.2 3326.3L14984.9 3323L13852.3 4455.7L13855.7 4459L14988.2 3326.3ZM15073.4 3323L15076.7 3326.3L13944.1 4459L13940.8 4455.7L15073.4 3323ZM15165.2 3326.3L15161.9 3323L14029.3 4455.7L14032.6 4459L15165.2 3326.3ZM15250.3 3323L15253.6 3326.3L14121.1 4459L14117.8 4455.7L15250.3 3323ZM15342.1 3326.3L15338.8 3323L14206.2 4455.7L14209.5 4459L15342.1 3326.3ZM15427.3 3323L15430.6 3326.3L14298 4459L14294.7 4455.7L15427.3 3323ZM15519.1 3326.3L15515.8 3323L14383.2 4455.7L14386.5 4459L15519.1 3326.3ZM15604.2 3323L15607.5 3326.3L14475 4459L14471.7 4455.7L15604.2 3323ZM15696 3326.3L15692.7 3323L14560.1 4455.7L14563.4 4459L15696 3326.3Z" fill="#C1C1C1"/>
<path fill-rule="evenodd" clip-rule="evenodd" d="M11287.9 4457.3L11284.6 4454L10152 5586.7L10155.3 5590L11287.9 4457.3ZM11376.3 4457.3L11373 4454L10240.5 5586.7L10243.8 5590L11376.3 4457.3ZM11461.5 4454L11464.8 4457.3L10332.2 5590L10328.9 5586.7L11461.5 4454ZM11553.3 4457.3L11550 4454L10417.4 5586.7L10420.7 5590L11553.3 4457.3ZM11638.5 4454L11641.8 4457.3L10509.2 5590L10505.9 5586.7L11638.5 4454ZM11730.2 4457.3L11726.9 4454L10594.4 5586.7L10597.7 5590L11730.2 4457.3ZM11815.4 4454L11818.7 4457.3L10686.1 5590L10682.8 5586.7L11815.4 4454ZM11907.2 4457.3L11903.9 4454L10771.3 5586.7L10774.6 5590L11907.2 4457.3ZM11992.3 4454L11995.7 4457.3L10863.1 5590L10859.8 5586.7L11992.3 4454ZM12084.1 4457.3L12080.8 4454L10948.2 5586.7L10951.5 5590L12084.1 4457.3ZM12169.3 4454L12172.6 4457.3L11040 5590L11036.7 5586.7L12169.3 4454ZM12261.1 4457.3L12257.8 4454L11125.2 5586.7L11128.5 5590L12261.1 4457.3ZM12346.2 4454L12349.5 4457.3L11217 5590L11213.7 5586.7L12346.2 4454ZM12438 4457.3L12434.7 4454L11302.1 5586.7L11305.4 5590L12438 4457.3ZM12523.2 4454L12526.5 4457.3L11393.9 5590L11390.6 5586.7L12523.2 4454ZM12615 4457.3L12611.7 4454L11479.1 5586.7L11482.4 5590L12615 4457.3ZM12700.1 4454L12703.4 4457.3L11570.9 5590L11567.6 5586.7L12700.1 4454ZM12791.9 4457.3L12788.6 4454L11656 5586.7L11659.3 5590L12791.9 4457.3ZM12877.1 4454L12880.4 4457.3L11747.8 5590L11744.5 5586.7L12877.1 4454ZM12968.8 4457.3L12965.5 4454L11833 5586.7L11836.3 5590L12968.8 4457.3ZM13054 4454L13057.3 4457.3L11924.7 5590L11921.4 5586.7L13054 4454ZM13145.8 4457.3L13142.5 4454L12009.9 5586.7L12013.2 5590L13145.8 4457.3ZM13231 4454L13234.3 4457.3L12101.7 5590L12098.4 5586.7L13231 4454ZM13322.7 4457.3L13319.4 4454L12186.9 5586.7L12190.2 5590L13322.7 4457.3ZM13407.9 4454L13411.2 4457.3L12278.6 5590L12275.3 5586.7L13407.9 4454ZM13499.7 4457.3L13496.4 4454L12363.8 5586.7L12367.1 5590L13499.7 4457.3ZM13584.8 4454L13588.1 4457.3L12455.6 5590L12452.3 5586.7L13584.8 4454ZM13676.6 4457.3L13673.3 4454L12540.7 5586.7L12544 5590L13676.6 4457.3ZM13761.8 4454L13765.1 4457.3L12632.5 5590L12629.2 5586.7L13761.8 4454ZM13853.6 4457.3L13850.3 4454L12717.7 5586.7L12721 5590L13853.6 4457.3ZM13938.7 4454L13942 4457.3L12809.5 5590L12806.2 5586.7L13938.7 4454ZM14030.5 4457.3L14027.2 4454L12894.6 5586.7L12897.9 5590L14030.5 4457.3ZM14115.7 4454L14119 4457.3L12986.4 5590L12983.1 5586.7L14115.7 4454ZM14207.4 4457.3L14204.1 4454L13071.6 5586.7L13074.9 5590L14207.4 4457.3ZM14292.6 4454L14295.9 4457.3L13163.3 5590L13160 5586.7L14292.6 4454ZM14384.4 4457.3L14381.1 4454L13248.5 5586.7L13251.8 5590L14384.4 4457.3ZM14469.6 4454L14472.9 4457.3L13340.3 5590L13337 5586.7L14469.6 4454ZM14561.3 4457.3L14558 4454L13425.5 5586.7L13428.8 5590L14561.3 4457.3ZM14646.5 4454L14649.8 4457.3L13517.2 5590L13513.9 5586.7L14646.5 4454ZM14738.3 4457.3L14735 4454L13602.4 5586.7L13605.7 5590L14738.3 4457.3ZM14823.5 4454L14826.8 4457.3L13694.2 5590L13690.9 5586.7L14823.5 4454ZM14915.2 4457.3L14911.9 4454L13779.3 5586.7L13782.7 5590L14915.2 4457.3ZM15000.4 4454L15003.7 4457.3L13871.1 5590L13867.8 5586.7L15000.4 4454ZM15092.2 4457.3L15088.9 4454L13956.3 5586.7L13959.6 5590L15092.2 4457.3ZM15177.3 4454L15180.6 4457.3L14048.1 5590L14044.8 5586.7L15177.3 4454ZM15269.1 4457.3L15265.8 4454L14133.2 5586.7L14136.5 5590L15269.1 4457.3ZM15354.3 4454L15357.6 4457.3L14225 5590L14221.7 5586.7L15354.3 4454ZM15446.1 4457.3L15442.8 4454L14310.2 5586.7L14313.5 5590L15446.1 4457.3ZM15531.2 4454L15534.5 4457.3L14402 5590L14398.7 5586.7L15531.2 4454ZM15623 4457.3L15619.7 4454L14487.1 5586.7L14490.4 5590L15623 4457.3Z" fill="#C1C1C1"/>
</g>
<mask id="mask1_301_164" style="mask-type:alpha" maskUnits="userSpaceOnUse" x="5603" y="10048" width="2236" height="2241">
<path d="M5603 10048H7839V12289H5603V10048Z" fill="#D9D9D9"/>
</mask>
<g mask="url(#mask1_301_164)">
<path fill-rule="evenodd" clip-rule="evenodd" d="M4679.88 10039.3L4676.57 10036L3544 11168.7L3547.3 11172L4679.88 10039.3ZM4768.35 10039.3L4765.04 10036L3632.47 11168.7L3635.77 11172L4768.35 10039.3ZM4853.52 10036L4856.82 10039.3L3724.25 11172L3720.94 11168.7L4853.52 10036ZM4945.29 10039.3L4941.99 10036L3809.42 11168.7L3812.72 11172L4945.29 10039.3ZM5030.46 10036L5033.76 10039.3L3901.19 11172L3897.89 11168.7L5030.46 10036ZM5122.23 10039.3L5118.93 10036L3986.36 11168.7L3989.66 11172L5122.23 10039.3ZM5207.4 10036L5210.71 10039.3L4078.13 11172L4074.83 11168.7L5207.4 10036ZM5299.18 10039.3L5295.88 10036L4163.3 11168.7L4166.61 11172L5299.18 10039.3ZM5384.35 10036L5387.65 10039.3L4255.08 11172L4251.78 11168.7L5384.35 10036ZM5476.12 10039.3L5472.82 10036L4340.25 11168.7L4343.55 11172L5476.12 10039.3ZM5561.29 10036L5564.59 10039.3L4432.02 11172L4428.72 11168.7L5561.29 10036ZM5653.07 10039.3L5649.76 10036L4517.19 11168.7L4520.49 11172L5653.07 10039.3ZM5738.24 10036L5741.54 10039.3L4608.97 11172L4605.66 11168.7L5738.24 10036ZM5830.01 10039.3L5826.71 10036L4694.14 11168.7L4697.44 11172L5830.01 10039.3ZM5915.18 10036L5918.48 10039.3L4785.91 11172L4782.61 11168.7L5915.18 10036ZM6006.95 10039.3L6003.65 10036L4871.08 11168.7L4874.38 11172L6006.95 10039.3ZM6092.12 10036L6095.43 10039.3L4962.85 11172L4959.55 11168.7L6092.12 10036ZM6183.9 10039.3L6180.6 10036L5048.02 11168.7L5051.32 11172L6183.9 10039.3ZM6269.07 10036L6272.37 10039.3L5139.8 11172L5136.49 11168.7L6269.07 10036ZM6360.84 10039.3L6357.54 10036L5224.97 11168.7L5228.27 11172L6360.84 10039.3ZM6446.01 10036L6449.31 10039.3L5316.74 11172L5313.44 11168.7L6446.01 10036ZM6537.79 10039.3L6534.48 10036L5401.91 11168.7L5405.21 11172L6537.79 10039.3ZM6622.96 10036L6626.26 10039.3L5493.68 11172L5490.38 11168.7L6622.96 10036ZM6714.73 10039.3L6711.43 10036L5578.85 11168.7L5582.16 11172L6714.73 10039.3ZM6799.9 10036L6803.2 10039.3L5670.63 11172L5667.33 11168.7L6799.9 10036ZM6891.67 10039.3L6888.37 10036L5755.8 11168.7L5759.1 11172L6891.67 10039.3ZM6976.84 10036L6980.15 10039.3L5847.57 11172L5844.27 11168.7L6976.84 10036ZM7068.62 10039.3L7065.32 10036L5932.74 11168.7L5936.04 11172L7068.62 10039.3ZM7153.79 10036L7157.09 10039.3L6024.52 11172L6021.21 11168.7L7153.79 10036ZM7245.56 10039.3L7242.26 10036L6109.69 11168.7L6112.99 11172L7245.56 10039.3ZM7330.73 10036L7334.03 10039.3L6201.46 11172L6198.16 11168.7L7330.73 10036ZM7422.51 10039.3L7419.2 10036L6286.63 11168.7L6289.93 11172L7422.51 10039.3ZM7507.68 10036L7510.98 10039.3L6378.4 11172L6375.1 11168.7L7507.68 10036ZM7599.45 10039.3L7596.15 10036L6463.57 11168.7L6466.88 11172L7599.45 10039.3ZM7684.62 10036L7687.92 10039.3L6555.35 11172L6552.05 11168.7L7684.62 10036ZM7776.39 10039.3L7773.09 10036L6640.52 11168.7L6643.82 11172L7776.39 10039.3ZM7861.56 10036L7864.86 10039.3L6732.29 11172L6728.99 11168.7L7861.56 10036ZM7953.34 10039.3L7950.03 10036L6817.46 11168.7L6820.76 11172L7953.34 10039.3ZM8038.51 10036L8041.81 10039.3L6909.24 11172L6905.93 11168.7L8038.51 10036ZM8130.28 10039.3L8126.98 10036L6994.41 11168.7L6997.71 11172L8130.28 10039.3ZM8215.45 10036L8218.75 10039.3L7086.18 11172L7082.88 11168.7L8215.45 10036ZM8307.22 10039.3L8303.92 10036L7171.35 11168.7L7174.65 11172L8307.22 10039.3ZM8392.39 10036L8395.7 10039.3L7263.12 11172L7259.82 11168.7L8392.39 10036ZM8484.17 10039.3L8480.87 10036L7348.29 11168.7L7351.6 11172L8484.17 10039.3ZM8569.34 10036L8572.64 10039.3L7440.07 11172L7436.77 11168.7L8569.34 10036ZM8661.11 10039.3L8657.81 10036L7525.24 11168.7L7528.54 11172L8661.11 10039.3ZM8746.28 10036L8749.58 10039.3L7617.01 11172L7613.71 11168.7L8746.28 10036ZM8838.06 10039.3L8834.75 10036L7702.18 11168.7L7705.48 11172L8838.06 10039.3ZM8923.23 10036L8926.53 10039.3L7793.96 11172L7790.65 11168.7L8923.23 10036ZM9015 10039.3L9011.7 10036L7879.12 11168.7L7882.43 11172L9015 10039.3Z" fill="#C1C1C1"/>
<path fill-rule="evenodd" clip-rule="evenodd" d="M4606.88 11170.3L4603.57 11167L3471 12299.7L3474.3 12303L4606.88 11170.3ZM4695.35 11170.3L4692.04 11167L3559.47 12299.7L3562.77 12303L4695.35 11170.3ZM4780.52 11167L4783.82 11170.3L3651.25 12303L3647.94 12299.7L4780.52 11167ZM4872.29 11170.3L4868.99 11167L3736.42 12299.7L3739.72 12303L4872.29 11170.3ZM4957.46 11167L4960.76 11170.3L3828.19 12303L3824.89 12299.7L4957.46 11167ZM5049.23 11170.3L5045.93 11167L3913.36 12299.7L3916.66 12303L5049.23 11170.3ZM5134.4 11167L5137.71 11170.3L4005.13 12303L4001.83 12299.7L5134.4 11167ZM5226.18 11170.3L5222.88 11167L4090.3 12299.7L4093.61 12303L5226.18 11170.3ZM5311.35 11167L5314.65 11170.3L4182.08 12303L4178.78 12299.7L5311.35 11167ZM5403.12 11170.3L5399.82 11167L4267.25 12299.7L4270.55 12303L5403.12 11170.3ZM5488.29 11167L5491.59 11170.3L4359.02 12303L4355.72 12299.7L5488.29 11167ZM5580.07 11170.3L5576.76 11167L4444.19 12299.7L4447.49 12303L5580.07 11170.3ZM5665.24 11167L5668.54 11170.3L4535.97 12303L4532.66 12299.7L5665.24 11167ZM5757.01 11170.3L5753.71 11167L4621.14 12299.7L4624.44 12303L5757.01 11170.3ZM5842.18 11167L5845.48 11170.3L4712.91 12303L4709.61 12299.7L5842.18 11167ZM5933.95 11170.3L5930.65 11167L4798.08 12299.7L4801.38 12303L5933.95 11170.3ZM6019.12 11167L6022.43 11170.3L4889.85 12303L4886.55 12299.7L6019.12 11167ZM6110.9 11170.3L6107.6 11167L4975.02 12299.7L4978.32 12303L6110.9 11170.3ZM6196.07 11167L6199.37 11170.3L5066.8 12303L5063.49 12299.7L6196.07 11167ZM6287.84 11170.3L6284.54 11167L5151.97 12299.7L5155.27 12303L6287.84 11170.3ZM6373.01 11167L6376.31 11170.3L5243.74 12303L5240.44 12299.7L6373.01 11167ZM6464.79 11170.3L6461.48 11167L5328.91 12299.7L5332.21 12303L6464.79 11170.3ZM6549.96 11167L6553.26 11170.3L5420.68 12303L5417.38 12299.7L6549.96 11167ZM6641.73 11170.3L6638.43 11167L5505.85 12299.7L5509.16 12303L6641.73 11170.3ZM6726.9 11167L6730.2 11170.3L5597.63 12303L5594.33 12299.7L6726.9 11167ZM6818.67 11170.3L6815.37 11167L5682.8 12299.7L5686.1 12303L6818.67 11170.3ZM6903.84 11167L6907.15 11170.3L5774.57 12303L5771.27 12299.7L6903.84 11167ZM6995.62 11170.3L6992.32 11167L5859.74 12299.7L5863.04 12303L6995.62 11170.3ZM7080.79 11167L7084.09 11170.3L5951.52 12303L5948.21 12299.7L7080.79 11167ZM7172.56 11170.3L7169.26 11167L6036.69 12299.7L6039.99 12303L7172.56 11170.3ZM7257.73 11167L7261.03 11170.3L6128.46 12303L6125.16 12299.7L7257.73 11167ZM7349.51 11170.3L7346.2 11167L6213.63 12299.7L6216.93 12303L7349.51 11170.3ZM7434.68 11167L7437.98 11170.3L6305.4 12303L6302.1 12299.7L7434.68 11167ZM7526.45 11170.3L7523.15 11167L6390.57 12299.7L6393.88 12303L7526.45 11170.3ZM7611.62 11167L7614.92 11170.3L6482.35 12303L6479.05 12299.7L7611.62 11167ZM7703.39 11170.3L7700.09 11167L6567.52 12299.7L6570.82 12303L7703.39 11170.3ZM7788.56 11167L7791.86 11170.3L6659.29 12303L6655.99 12299.7L7788.56 11167ZM7880.34 11170.3L7877.03 11167L6744.46 12299.7L6747.76 12303L7880.34 11170.3ZM7965.51 11167L7968.81 11170.3L6836.24 12303L6832.93 12299.7L7965.51 11167ZM8057.28 11170.3L8053.98 11167L6921.41 12299.7L6924.71 12303L8057.28 11170.3ZM8142.45 11167L8145.75 11170.3L7013.18 12303L7009.88 12299.7L8142.45 11167ZM8234.22 11170.3L8230.92 11167L7098.35 12299.7L7101.65 12303L8234.22 11170.3ZM8319.39 11167L8322.7 11170.3L7190.12 12303L7186.82 12299.7L8319.39 11167ZM8411.17 11170.3L8407.87 11167L7275.29 12299.7L7278.6 12303L8411.17 11170.3ZM8496.34 11167L8499.64 11170.3L7367.07 12303L7363.77 12299.7L8496.34 11167ZM8588.11 11170.3L8584.81 11167L7452.24 12299.7L7455.54 12303L8588.11 11170.3ZM8673.28 11167L8676.58 11170.3L7544.01 12303L7540.71 12299.7L8673.28 11167ZM8765.06 11170.3L8761.75 11167L7629.18 12299.7L7632.48 12303L8765.06 11170.3ZM8850.23 11167L8853.53 11170.3L7720.96 12303L7717.65 12299.7L8850.23 11167ZM8942 11170.3L8938.7 11167L7806.12 12299.7L7809.43 12303L8942 11170.3Z" fill="#C1C1C1"/>
</g>
<mask id="mask2_301_164" style="mask-type:alpha" maskUnits="userSpaceOnUse" x="1141" y="4461" width="2236" height="2241">
<path d="M1141 4461H3377V6702H1141V4461Z" fill="#D9D9D9"/>
</mask>
<g mask="url(#mask2_301_164)">
<path fill-rule="evenodd" clip-rule="evenodd" d="M217.875 4452.3L214.573 4449L-918 5581.7L-914.698 5585L217.875 4452.3ZM306.347 4452.3L303.045 4449L-829.528 5581.7L-826.226 5585L306.347 4452.3ZM391.517 4449L394.819 4452.3L-737.754 5585L-741.056 5581.7L391.517 4449ZM483.291 4452.3L479.989 4449L-652.584 5581.7L-649.282 5585L483.291 4452.3ZM568.461 4449L571.763 4452.3L-560.81 5585L-564.112 5581.7L568.461 4449ZM660.234 4452.3L656.933 4449L-475.64 5581.7L-472.338 5585L660.234 4452.3ZM745.405 4449L748.707 4452.3L-383.866 5585L-387.168 5581.7L745.405 4449ZM837.178 4452.3L833.877 4449L-298.696 5581.7L-295.394 5585L837.178 4452.3ZM922.349 4449L925.65 4452.3L-206.922 5585L-210.224 5581.7L922.349 4449ZM1014.12 4452.3L1010.82 4449L-121.753 5581.7L-118.451 5585L1014.12 4452.3ZM1099.29 4449L1102.59 4452.3L-29.9786 5585L-33.2806 5581.7L1099.29 4449ZM1191.07 4452.3L1187.76 4449L55.1913 5581.7L58.4933 5585L1191.07 4452.3ZM1276.24 4449L1279.54 4452.3L146.965 5585L143.663 5581.7L1276.24 4449ZM1368.01 4452.3L1364.71 4449L232.135 5581.7L235.437 5585L1368.01 4452.3ZM1453.18 4449L1456.48 4452.3L323.909 5585L320.607 5581.7L1453.18 4449ZM1544.95 4452.3L1541.65 4449L409.079 5581.7L412.381 5585L1544.95 4452.3ZM1630.12 4449L1633.43 4452.3L500.853 5585L497.551 5581.7L1630.12 4449ZM1721.9 4452.3L1718.6 4449L586.023 5581.7L589.325 5585L1721.9 4452.3ZM1807.07 4449L1810.37 4452.3L677.797 5585L674.495 5581.7L1807.07 4449ZM1898.84 4452.3L1895.54 4449L762.967 5581.7L766.269 5585L1898.84 4452.3ZM1984.01 4449L1987.31 4452.3L854.741 5585L851.439 5581.7L1984.01 4449ZM2075.79 4452.3L2072.48 4449L939.911 5581.7L943.213 5585L2075.79 4452.3ZM2160.96 4449L2164.26 4452.3L1031.68 5585L1028.38 5581.7L2160.96 4449ZM2252.73 4452.3L2249.43 4449L1116.85 5581.7L1120.16 5585L2252.73 4452.3ZM2337.9 4449L2341.2 4452.3L1208.63 5585L1205.33 5581.7L2337.9 4449ZM2429.67 4452.3L2426.37 4449L1293.8 5581.7L1297.1 5585L2429.67 4452.3ZM2514.84 4449L2518.15 4452.3L1385.57 5585L1382.27 5581.7L2514.84 4449ZM2606.62 4452.3L2603.32 4449L1470.74 5581.7L1474.04 5585L2606.62 4452.3ZM2691.79 4449L2695.09 4452.3L1562.52 5585L1559.21 5581.7L2691.79 4449ZM2783.56 4452.3L2780.26 4449L1647.69 5581.7L1650.99 5585L2783.56 4452.3ZM2868.73 4449L2872.03 4452.3L1739.46 5585L1736.16 5581.7L2868.73 4449ZM2960.51 4452.3L2957.2 4449L1824.63 5581.7L1827.93 5585L2960.51 4452.3ZM3045.68 4449L3048.98 4452.3L1916.4 5585L1913.1 5581.7L3045.68 4449ZM3137.45 4452.3L3134.15 4449L2001.57 5581.7L2004.88 5585L3137.45 4452.3ZM3222.62 4449L3225.92 4452.3L2093.35 5585L2090.05 5581.7L3222.62 4449ZM3314.39 4452.3L3311.09 4449L2178.52 5581.7L2181.82 5585L3314.39 4452.3ZM3399.56 4449L3402.86 4452.3L2270.29 5585L2266.99 5581.7L3399.56 4449ZM3491.34 4452.3L3488.03 4449L2355.46 5581.7L2358.76 5585L3491.34 4452.3ZM3576.51 4449L3579.81 4452.3L2447.24 5585L2443.93 5581.7L3576.51 4449ZM3668.28 4452.3L3664.98 4449L2532.41 5581.7L2535.71 5585L3668.28 4452.3ZM3753.45 4449L3756.75 4452.3L2624.18 5585L2620.88 5581.7L3753.45 4449ZM3845.22 4452.3L3841.92 4449L2709.35 5581.7L2712.65 5585L3845.22 4452.3ZM3930.39 4449L3933.7 4452.3L2801.12 5585L2797.82 5581.7L3930.39 4449ZM4022.17 4452.3L4018.87 4449L2886.29 5581.7L2889.6 5585L4022.17 4452.3ZM4107.34 4449L4110.64 4452.3L2978.07 5585L2974.77 5581.7L4107.34 4449ZM4199.11 4452.3L4195.81 4449L3063.24 5581.7L3066.54 5585L4199.11 4452.3ZM4284.28 4449L4287.58 4452.3L3155.01 5585L3151.71 5581.7L4284.28 4449ZM4376.06 4452.3L4372.75 4449L3240.18 5581.7L3243.48 5585L4376.06 4452.3ZM4461.23 4449L4464.53 4452.3L3331.96 5585L3328.65 5581.7L4461.23 4449ZM4553 4452.3L4549.7 4449L3417.12 5581.7L3420.43 5585L4553 4452.3Z" fill="#C1C1C1"/>
<path fill-rule="evenodd" clip-rule="evenodd" d="M144.875 5583.3L141.573 5580L-991 6712.7L-987.698 6716L144.875 5583.3ZM233.347 5583.3L230.045 5580L-902.528 6712.7L-899.226 6716L233.347 5583.3ZM318.517 5580L321.819 5583.3L-810.754 6716L-814.056 6712.7L318.517 5580ZM410.291 5583.3L406.989 5580L-725.584 6712.7L-722.282 6716L410.291 5583.3ZM495.461 5580L498.763 5583.3L-633.81 6716L-637.112 6712.7L495.461 5580ZM587.234 5583.3L583.933 5580L-548.64 6712.7L-545.338 6716L587.234 5583.3ZM672.405 5580L675.707 5583.3L-456.866 6716L-460.168 6712.7L672.405 5580ZM764.178 5583.3L760.877 5580L-371.696 6712.7L-368.394 6716L764.178 5583.3ZM849.349 5580L852.65 5583.3L-279.922 6716L-283.224 6712.7L849.349 5580ZM941.122 5583.3L937.82 5580L-194.753 6712.7L-191.451 6716L941.122 5583.3ZM1026.29 5580L1029.59 5583.3L-102.979 6716L-106.281 6712.7L1026.29 5580ZM1118.07 5583.3L1114.76 5580L-17.8087 6712.7L-14.5067 6716L1118.07 5583.3ZM1203.24 5580L1206.54 5583.3L73.9653 6716L70.6633 6712.7L1203.24 5580ZM1295.01 5583.3L1291.71 5580L159.135 6712.7L162.437 6716L1295.01 5583.3ZM1380.18 5580L1383.48 5583.3L250.909 6716L247.607 6712.7L1380.18 5580ZM1471.95 5583.3L1468.65 5580L336.079 6712.7L339.381 6716L1471.95 5583.3ZM1557.12 5580L1560.43 5583.3L427.853 6716L424.551 6712.7L1557.12 5580ZM1648.9 5583.3L1645.6 5580L513.023 6712.7L516.325 6716L1648.9 5583.3ZM1734.07 5580L1737.37 5583.3L604.797 6716L601.495 6712.7L1734.07 5580ZM1825.84 5583.3L1822.54 5580L689.967 6712.7L693.269 6716L1825.84 5583.3ZM1911.01 5580L1914.31 5583.3L781.741 6716L778.439 6712.7L1911.01 5580ZM2002.79 5583.3L1999.48 5580L866.911 6712.7L870.213 6716L2002.79 5583.3ZM2087.96 5580L2091.26 5583.3L958.685 6716L955.383 6712.7L2087.96 5580ZM2179.73 5583.3L2176.43 5580L1043.85 6712.7L1047.16 6716L2179.73 5583.3ZM2264.9 5580L2268.2 5583.3L1135.63 6716L1132.33 6712.7L2264.9 5580ZM2356.67 5583.3L2353.37 5580L1220.8 6712.7L1224.1 6716L2356.67 5583.3ZM2441.84 5580L2445.15 5583.3L1312.57 6716L1309.27 6712.7L2441.84 5580ZM2533.62 5583.3L2530.32 5580L1397.74 6712.7L1401.04 6716L2533.62 5583.3ZM2618.79 5580L2622.09 5583.3L1489.52 6716L1486.21 6712.7L2618.79 5580ZM2710.56 5583.3L2707.26 5580L1574.69 6712.7L1577.99 6716L2710.56 5583.3ZM2795.73 5580L2799.03 5583.3L1666.46 6716L1663.16 6712.7L2795.73 5580ZM2887.51 5583.3L2884.2 5580L1751.63 6712.7L1754.93 6716L2887.51 5583.3ZM2972.68 5580L2975.98 5583.3L1843.4 6716L1840.1 6712.7L2972.68 5580ZM3064.45 5583.3L3061.15 5580L1928.57 6712.7L1931.88 6716L3064.45 5583.3ZM3149.62 5580L3152.92 5583.3L2020.35 6716L2017.05 6712.7L3149.62 5580ZM3241.39 5583.3L3238.09 5580L2105.52 6712.7L2108.82 6716L3241.39 5583.3ZM3326.56 5580L3329.86 5583.3L2197.29 6716L2193.99 6712.7L3326.56 5580ZM3418.34 5583.3L3415.03 5580L2282.46 6712.7L2285.76 6716L3418.34 5583.3ZM3503.51 5580L3506.81 5583.3L2374.24 6716L2370.93 6712.7L3503.51 5580ZM3595.28 5583.3L3591.98 5580L2459.41 6712.7L2462.71 6716L3595.28 5583.3ZM3680.45 5580L3683.75 5583.3L2551.18 6716L2547.88 6712.7L3680.45 5580ZM3772.22 5583.3L3768.92 5580L2636.35 6712.7L2639.65 6716L3772.22 5583.3ZM3857.39 5580L3860.7 5583.3L2728.12 6716L2724.82 6712.7L3857.39 5580ZM3949.17 5583.3L3945.87 5580L2813.29 6712.7L2816.6 6716L3949.17 5583.3ZM4034.34 5580L4037.64 5583.3L2905.07 6716L2901.77 6712.7L4034.34 5580ZM4126.11 5583.3L4122.81 5580L2990.24 6712.7L2993.54 6716L4126.11 5583.3ZM4211.28 5580L4214.58 5583.3L3082.01 6716L3078.71 6712.7L4211.28 5580ZM4303.06 5583.3L4299.75 5580L3167.18 6712.7L3170.48 6716L4303.06 5583.3ZM4388.23 5580L4391.53 5583.3L3258.96 6716L3255.65 6712.7L4388.23 5580ZM4480 5583.3L4476.7 5580L3344.12 6712.7L3347.43 6716L4480 5583.3Z" fill="#C1C1C1"/>
</g>
<path d="M743 1754L368 1971V2405L743 2188V1754Z" fill="#C8DDF2"/>
<path d="M2980 886L2605 1103V1537L2980 1320V886Z" fill="#C8DDF2"/>
<path d="M3729 886L4104 1103V1537L3729 1320V886Z" fill="#BABABA"/>
<path d="M743 2188L368 2405V2839L743 2622V2188Z" fill="#C8DDF2"/>
<path d="M2980 1320L2605 1537V1971L2980 1754V1320Z" fill="#C8DDF2"/>
<path d="M3729 1320L4104 1537V1971L3729 1754V1320Z" fill="#C8DDF2"/>
<path d="M743 2622L368 2839V3273L743 3056V2622Z" fill="#C8DDF2"/>
<path d="M2980 1754L2605 1971V2405L2980 2188V1754Z" fill="#C8DDF2"/>
<path d="M3729 1754L4104 1971V2405L3729 2188V1754Z" fill="#315390"/>
<path d="M3729 2622L4104 2839V3273L3729 3056V2622Z" fill="#BABABA"/>
<path d="M368 1971L-7 2188V2622L368 2405V1971Z" fill="#C8DDF2"/>
<path d="M743 1754L1118 1971L1493 1754L1118 1537L743 1754Z" fill="#E9EFF6"/>
<path d="M1112 1537L1487 1754L1862 1537L1487 1320L1112 1537Z" fill="#E9EFF6"/>
<path d="M1480 1320L1855 1537L2230 1320L1855 1103L1480 1320Z" fill="#E9EFF6"/>
<path d="M3729 2622L4104 2839L4479 2622L4104 2405L3729 2622Z" fill="#E9EFF6"/>
<path d="M3729 886L4104 1103L4479 886L4104 669L3729 886Z" fill="#E9EFF6"/>
<path d="M368 1537L743 1754L1118 1537L743 1320L368 1537Z" fill="#E9EFF6"/>
<path d="M3354 2405L3729 2622L4104 2405L3729 2188L3354 2405Z" fill="#E9EFF6"/>
<path d="M-7 1754L368 1971L743 1754L368 1537L-7 1754Z" fill="#E9EFF6"/>
<path d="M2980 2188L3355 2405L3730 2188L3355 1971L2980 2188Z" fill="#E9EFF6"/>
<path d="M2980 452L3355 669L3730 452L3355 235L2980 452Z" fill="#E9EFF6"/>
<path d="M-382 1537L-7 1754L368 1537L-7 1320L-382 1537Z" fill="#E9EFF6"/>
<path d="M2605 2405L2980 2622L3355 2405L2980 2188L2605 2405Z" fill="#E9EFF6"/>
<path d="M1861 2839L2236 3056L2611 2839L2236 2622L1861 2839Z" fill="#E9EFF6"/>
<path d="M2230 2622L2605 2839L2980 2622L2605 2405L2230 2622Z" fill="#E9EFF6"/>
<path d="M2230 886L2605 1103L2980 886L2605 669L2230 886Z" fill="#E9EFF6"/>
<path d="M1492 3056L1867 3273L2242 3056L1867 2839L1492 3056Z" fill="#E9EFF6"/>
<path d="M4104 2839L4479 3056L4854 2839L4479 2622L4104 2839Z" fill="#384057"/>
<path d="M4479 2622L4854 2839L5229 2622L4854 2405L4479 2622Z" fill="#384057"/>
<path d="M4854 2405L5229 2622L5604 2405L5229 2188L4854 2405Z" fill="#384057"/>
<path d="M368 3707L743 3924V4358L368 4141V3707Z" fill="#C8DDF2"/>
<path d="M1114 3707L1489 3924L1864 3707L1489 3490L1114 3707Z" fill="#384057"/>
<path d="M-7 3924L368 4141L743 3924L368 3707L-7 3924Z" fill="#384057"/>
<path d="M4104 669L4479 886L4854 669L4479 452L4104 669Z" fill="#384057"/>
<path d="M1114 3273L1489 3490L1864 3273L1489 3056L1114 3273Z" fill="#384057"/>
<path d="M-7 4358L368 4575L743 4358L368 4141L-7 4358Z" fill="#C8DDF2"/>
<path d="M-7 4792L368 5009L743 4792L368 4575L-7 4792Z" fill="#BABABA"/>
<path d="M-382 5009L-7 5226L368 5009L-7 4792L-382 5009Z" fill="#BABABA"/>
<path d="M368 4575L743 4792L1118 4575L743 4358L368 4575Z" fill="#BABABA"/>
<path d="M-9 3056L366 3273V3707L-9 3490V3056Z" fill="#315390"/>
<path d="M366 3273L741 3490V3924L366 3707V3273Z" fill="#315390"/>
<path d="M4104 3273L4479 3490V3924L4104 3707V3273Z" fill="#315390"/>
<path d="M368 669L743 886V1320L368 1103V669Z" fill="#315390"/>
<path d="M1867 -199L2242 18V452L1867 235V-199Z" fill="#315390"/>
<path d="M2230 1754L2605 1971V2405L2230 2188V1754Z" fill="#BABABA"/>
<path d="M2230 1320L2605 1537V1971L2230 1754V1320Z" fill="#BABABA"/>
<path d="M2230 886L2605 1103V1537L2230 1320V886Z" fill="#BABABA"/>
<path d="M1114 3273L1489 3490V3924L1114 3707V3273Z" fill="#315390"/>
<path d="M1114 4141L1489 4358V4792L1114 4575V4141Z" fill="#315390"/>
<path d="M-7 3924L368 4141V4575L-7 4358V3924Z" fill="#315390"/>
<path d="M741 3924L1116 4141V4575L741 4358V3924Z" fill="#315390"/>
<path d="M741 3490L1116 3707V4141L741 3924V3490Z" fill="#C8DDF2"/>
<path d="M1867 1103L2242 1320L2617 1103L2242 886L1867 1103Z" fill="#E9EFF6"/>
<path d="M743 1754L1118 1971V2405L743 2188V1754Z" fill="#315390"/>
<path d="M4854 2839L4479 3056V3490L4854 3273V2839Z" fill="#C8DDF2"/>
<path d="M5228 2622L4853 2839V3273L5228 3056V2622Z" fill="#C8DDF2"/>
<path d="M5603 2405L5228 2622V3056L5603 2839V2405Z" fill="#C8DDF2"/>
<path d="M4854 1971L4479 2188V2622L4854 2405V1971Z" fill="#C8DDF2"/>
<path d="M1863 3273L1488 3490V3924L1863 3707V3273Z" fill="#C8DDF2"/>
<path d="M2236 3056L1861 3273V3707L2236 3490V3056Z" fill="#C8DDF2"/>
<path d="M2611 2839L2236 3056V3490L2611 3273V2839Z" fill="#C8DDF2"/>
<path d="M1863 4141L1488 4358V4792L1863 4575V4141Z" fill="#C8DDF2"/>
<path d="M2236 3924L1861 4141V4575L2236 4358V3924Z" fill="#C8DDF2"/>
<path d="M2611 3707L2236 3924V4358L2611 4141V3707Z" fill="#C8DDF2"/>
<path d="M1492 1754L1117 1971V2405L1492 2188V1754Z" fill="#C8DDF2"/>
<path d="M1115 3273L740 3490V3924L1115 3707V3273Z" fill="#C8DDF2"/>
<path d="M1492 2622L1117 2839V3273L1492 3056V2622Z" fill="#C8DDF2"/>
<path d="M4854 1103L4479 1320V1754L4854 1537V1103Z" fill="#C8DDF2"/>
<path d="M1492 2188L1117 2405V2839L1492 2622V2188Z" fill="#384057"/>
<path fill-rule="evenodd" clip-rule="evenodd" d="M-384.055 2405L-383.079 2405.57L-382.103 2405V2406.13L-9.28857 2622V2623.13L-7.33643 2622L367.431 2839L366.452 2839.57L740.234 3056L1115 3273L740.233 3490L365.467 3273L-9.28857 3056L-9.29517 3056L-9.2998 3056L-383.08 2839.57L-756.859 3055.99V3056L-1131.63 3273V2839L-756.87 2622.01V2622L-384.055 2406.13V2405ZM-9.28857 3055.99V3054.87L-8.32104 3055.43L-9.28857 3055.99ZM-3755 2622L-3380.23 2839L-3005.47 2622L-3380.23 2405L-3755 2622ZM-3380.22 2839L-3005.47 3055.99L-3005.48 3056L-2630.71 3273L-2255.94 3056L-2630.7 2839.01L-2630.69 2839L-3005.46 2622L-3380.22 2839ZM-1506.4 3056L-1881.17 3273L-1881.16 3273L-2255.93 3490L-2630.7 3273L-2255.93 3056L-2255.93 3056L-1881.17 2839L-1881.16 2839L-1506.4 2622.01V2622L-1506.4 2622L-1506.39 2622L-1131.63 2839L-1131.63 2839.01V3273L-1506.4 3056Z" fill="url(#paint0_linear_301_164)"/>
<path fill-rule="evenodd" clip-rule="evenodd" d="M5984 3490L5609.23 3707L5234.47 3490L5609.23 3273L5984 3490ZM2237.33 3923.43L2238.29 3922.87V3923.99L2237.33 3923.43ZM2236.34 3490L2238.29 3491.13V3490L2611.11 3274.13V3273L2612.08 3273.57L2613.06 3273V3274.13L2985.87 3490V3490.01L3360.62 3707V4141L2985.86 3924V3923.99L2612.08 3707.57L2238.3 3924L2238.29 3924L1863.54 4141L1488.77 3924L1862.55 3707.57L1861.57 3707L2236.34 3490ZM5609.22 3707L5234.47 3924L5234.47 3924L4859.71 4141L4484.94 3924L4859.7 3707.01L4859.69 3707L5234.46 3490L5609.22 3707ZM1488.77 4358L1863.53 4141L1488.77 3924L1114 4141L1488.77 4358ZM4484.93 3924L4484.93 3924L4859.69 4141L4484.93 4358L4110.16 4141L4110.16 4141L3735.4 3924V3924L3360.64 4141V3707.01L3360.62 3707L3735.39 3490L3735.4 3490.01L3735.4 3490V3490.01L4110.16 3707L4110.17 3707L4484.93 3924Z" fill="url(#paint1_linear_301_164)"/>
<path d="M4104 1537L4479 1754V2188L4104 1971V1537Z" fill="#E9EFF6"/>
<path d="M14858 9322L15233 9539L15608 9322L15233 9105L14858 9322Z" fill="#384057"/>
<path d="M15607 8454L15232 8671V9105L15607 8888V8454Z" fill="#C8DDF2"/>
<path d="M18981 8671L18606 8888V9322L18981 9105V8671Z" fill="#C8DDF2"/>
<path d="M18981 9105L18606 9322V9756L18981 9539V9105Z" fill="#C8DDF2"/>
<path d="M18981 9539L18606 9756V10190L18981 9973V9539Z" fill="#C8DDF2"/>
<path d="M18606 8888L18231 9105V9539L18606 9322V8888Z" fill="#C8DDF2"/>
<path d="M18231 9105L17856 9322V9756L18231 9539V9105Z" fill="#315390"/>
<path d="M15607 8888L15232 9105V9539L15607 9322V8888Z" fill="#E9EFF6"/>
<path d="M16732 9105L17107 9322L17482 9105L17107 8888L16732 9105Z" fill="#384057"/>
<path d="M15607 8454L15982 8671L16357 8454L15982 8237L15607 8454Z" fill="#E9EFF6"/>
<path d="M18981 8671L19356 8888L19731 8671L19356 8454L18981 8671Z" fill="#E9EFF6"/>
<path d="M19350 8454L19725 8671L20100 8454L19725 8237L19350 8454Z" fill="#E9EFF6"/>
<path d="M19718 8237L20093 8454L20468 8237L20093 8020L19718 8237Z" fill="#E9EFF6"/>
<path d="M18606 8454L18981 8671L19356 8454L18981 8237L18606 8454Z" fill="#E9EFF6"/>
<path d="M18231 8671L18606 8888L18981 8671L18606 8454L18231 8671Z" fill="#E9EFF6"/>
<path d="M17856 8454L18231 8671L18606 8454L18231 8237L17856 8454Z" fill="#E9EFF6"/>
<path d="M17481 8671L17856 8888L18231 8671L17856 8454L17481 8671Z" fill="#E9EFF6"/>
<path d="M19730 9973L20105 10190L20480 9973L20105 9756L19730 9973Z" fill="#E9EFF6"/>
<path d="M17481 9105L17856 9322L18231 9105L17856 8888L17481 9105Z" fill="#C8DDF2"/>
<path d="M16357 7586L16732 7803L17107 7586L16732 7369L16357 7586Z" fill="#E9EFF6"/>
<path d="M17479 8237L17854 8454L18229 8237L17854 8020L17479 8237Z" fill="#E9EFF6"/>
<path d="M15982 7369L16357 7586L16732 7369L16357 7152L15982 7369Z" fill="#E9EFF6"/>
<path d="M17107 8020L17482 8237L17857 8020L17482 7803L17107 8020Z" fill="#E9EFF6"/>
<path d="M15607 7152L15982 7369L16357 7152L15982 6935L15607 7152Z" fill="#E9EFF6"/>
<path d="M16732 7803L17107 8020L17482 7803L17107 7586L16732 7803Z" fill="#384057"/>
<path d="M18606 10624L18981 10841V11275L18606 11058V10624Z" fill="#C8DDF2"/>
<path d="M16732 7369L17107 7586L17482 7369L17107 7152L16732 7369Z" fill="#384057"/>
<path d="M19352 10624L19727 10841L20102 10624L19727 10407L19352 10624Z" fill="#384057"/>
<path d="M18231 10841L18606 11058L18981 10841L18606 10624L18231 10841Z" fill="#384057"/>
<path d="M17107 11058L17482 11275L17857 11058L17482 10841L17107 11058Z" fill="#384057"/>
<path d="M17479 10841L17854 11058L18229 10841L17854 10624L17479 10841Z" fill="#384057"/>
<path d="M16732 6935L17107 7152L17482 6935L17107 6718L16732 6935Z" fill="#384057"/>
<path d="M19352 10190L19727 10407L20102 10190L19727 9973L19352 10190Z" fill="#384057"/>
<path d="M18231 11275L18606 11492L18981 11275L18606 11058L18231 11275Z" fill="#C8DDF2"/>
<path d="M18606 11492L18981 11709L19356 11492L18981 11275L18606 11492Z" fill="#BABABA"/>
<path d="M16732 9105L17107 9322V9756L16732 9539V9105Z" fill="#315390"/>
<path d="M17854 9756L18229 9973V10407L17854 10190V9756Z" fill="#315390"/>
<path d="M18229 9973L18604 10190V10624L18229 10407V9973Z" fill="#315390"/>
<path d="M18604 10190L18979 10407V10841L18604 10624V10190Z" fill="#315390"/>
<path d="M16732 7803L17107 8020V8454L16732 8237V7803Z" fill="#315390"/>
<path d="M16732 6935L17107 7152V7586L16732 7369V6935Z" fill="#315390"/>
<path d="M18606 7586L18981 7803V8237L18606 8020V7586Z" fill="#315390"/>
<path d="M19352 10190L19727 10407V10841L19352 10624V10190Z" fill="#315390"/>
<path d="M19352 11058L19727 11275V11709L19352 11492V11058Z" fill="#315390"/>
<path d="M18231 10841L18606 11058V11492L18231 11275V10841Z" fill="#315390"/>
<path d="M17107 11058L17482 11275V11709L17107 11492V11058Z" fill="#C8DDF2"/>
<path d="M18979 10841L19354 11058V11492L18979 11275V10841Z" fill="#315390"/>
<path d="M18979 10407L19354 10624V11058L18979 10841V10407Z" fill="#C8DDF2"/>
<path d="M15982 8671L16357 8888V9322L15982 9105V8671Z" fill="#315390"/>
<path d="M16357 8888L16732 9105V9539L16357 9322V8888Z" fill="#315390"/>
<path d="M15607 8454L15982 8671V9105L15607 8888V8454Z" fill="#315390"/>
<path d="M18981 8671L19356 8888V9322L18981 9105V8671Z" fill="#315390"/>
<path d="M17481 9105L17106 9322V9756L17481 9539V9105Z" fill="#C8DDF2"/>
<path d="M17481 7803L17106 8020V8454L17481 8237V7803Z" fill="#C8DDF2"/>
<path d="M17481 6935L17106 7152V7586L17481 7369V6935Z" fill="#C8DDF2"/>
<path d="M20101 10190L19726 10407V10841L20101 10624V10190Z" fill="#C8DDF2"/>
<path d="M20101 11058L19726 11275V11709L20101 11492V11058Z" fill="#C8DDF2"/>
<path d="M16357 8454L15982 8671V9105L16357 8888V8454Z" fill="#C8DDF2"/>
<path d="M19730 8671L19355 8888V9322L19730 9105V8671Z" fill="#C8DDF2"/>
<path d="M17481 9973L17106 10190V10624L17481 10407V9973Z" fill="#C8DDF2"/>
<path d="M17856 9756L17481 9973V10407L17856 10190V9756Z" fill="#C8DDF2"/>
<path d="M19353 10190L18978 10407V10841L19353 10624V10190Z" fill="#C8DDF2"/>
<path d="M16357 9322L15982 9539V9973L16357 9756V9322Z" fill="#C8DDF2"/>
<path d="M19730 9539L19355 9756V10190L19730 9973V9539Z" fill="#C8DDF2"/>
<path d="M17481 8237L17106 8454V8888L17481 8671V8237Z" fill="#C8DDF2"/>
<path d="M16357 8888L15982 9105V9539L16357 9322V8888Z" fill="#384057"/>
<path d="M19730 9105L19355 9322V9756L19730 9539V9105Z" fill="#384057"/>
<path d="M17107 10624L16732 10841V11275L17107 11058V10624Z" fill="#315390"/>
<path d="M17107 9756L16732 9973V10407L17107 10190V9756Z" fill="#315390"/>
<path d="M17107 11058L16732 11275V11709L17107 11492V11058Z" fill="#315390"/>
<path d="M17107 10190L16732 10407V10841L17107 10624V10190Z" fill="#315390"/>
<path fill-rule="evenodd" clip-rule="evenodd" d="M17853.9 9322L17854.9 9322.57L17855.9 9322V9323.13L18228.7 9539V9540.13L18230.7 9539L18605.4 9756L18604.5 9756.57L18978.2 9973L19353 10190L18978.2 10407L18603.5 10190L18228.7 9973L18228.7 9973L18228.7 9973L17854.9 9756.57L17481.1 9972.99V9973L17106.4 10190V9756L17481.1 9539.01V9539L17853.9 9323.13V9322ZM18228.7 9972.99V9971.87L18229.7 9972.43L18228.7 9972.99ZM14483 9539L14857.8 9756L15232.5 9539L14857.8 9322L14483 9539ZM14857.8 9756L15232.5 9972.99L15232.5 9973L15607.3 10190L15982.1 9973L15607.3 9756.01L15607.3 9756L15232.5 9539L14857.8 9756ZM16731.6 9973L16356.8 10190L16356.8 10190L15982.1 10407L15607.3 10190L15982.1 9973L15982.1 9973L16356.8 9756L16356.8 9756L16731.6 9539.01V9539L16731.6 9539L16731.6 9539L17106.4 9756L17106.4 9756.01V10190L16731.6 9973Z" fill="url(#paint2_linear_301_164)"/>
<path fill-rule="evenodd" clip-rule="evenodd" d="M24222 10407L23847.2 10624L23472.5 10407L23847.2 10190L24222 10407ZM20475.3 10840.4L20476.3 10839.9V10841L20475.3 10840.4ZM20474.3 10407L20476.3 10408.1V10407L20849.1 10191.1V10190L20850.1 10190.6L20851.1 10190V10191.1L21223.9 10407V10407L21598.6 10624V11058L21223.9 10841V10841L20850.1 10624.6L20476.3 10841L20476.3 10841L20101.5 11058L19726.8 10841L20100.6 10624.6L20099.6 10624L20474.3 10407ZM23847.2 10624L23472.5 10841L23472.5 10841L23097.7 11058L22722.9 10841L23097.7 10624L23097.7 10624L23472.5 10407L23847.2 10624ZM19726.8 11275L20101.5 11058L19726.8 10841L19352 11058L19726.8 11275ZM22722.9 10841L22722.9 10841L23097.7 11058L22722.9 11275L22348.2 11058L22348.2 11058L21973.4 10841V10841L21598.6 11058V10624L21598.6 10624L21973.4 10407L21973.4 10407L21973.4 10407V10407L22348.2 10624L22348.2 10624L22722.9 10841Z" fill="url(#paint3_linear_301_164)"/>
<path d="M16732 8237L17107 8454V8888L16732 8671V8237Z" fill="#315390"/>
<path d="M17866 6718H20107V7844H17866V6718Z" fill="#E9EFF6"/>
<path opacity="0.9" d="M3948 1105H18986V10074H3948V1105Z" fill="#FBFBFB"/>
<path opacity="0.9" fill-rule="evenodd" clip-rule="evenodd" d="M18975.5 1115.47H3958.47V10063.5H18975.5V1115.47ZM3948 1105V10074H18986V1105H3948Z" fill="#C1C1C1"/>
<path d="M7818 10153H8939V11274H7818V10153Z" fill="white"/>
<path opacity="0.9" d="M1121 1105H3362V2220H1121V1105Z" fill="white"/>
<path opacity="0.9" fill-rule="evenodd" clip-rule="evenodd" d="M3351.53 1115.47H1131.47V2209.53H3351.53V1115.47ZM1121 1105V2220H3362V1105H1121Z" fill="#C1C1C1"/>
<path opacity="0.9" d="M0 8953H2241V10068H0V8953Z" fill="white"/>
<path d="M0 1105H1115V2220H0V1105Z" fill="#E9EFF7"/>
<path d="M1717.86 1584.76H1768.51V1503.23L1797.69 1584.76H1817.01L1847.48 1503.23V1584.76H1904.35V1431.36H1832.24L1811.43 1492.72L1791.25 1431.36H1717.86V1584.76Z" fill="#384057"/>
<path d="M2003.79 1587.77C2055.93 1587.77 2089.63 1556.66 2089.63 1507.52V1505.81C2089.63 1455.82 2052.72 1429 2005.07 1429C1958.72 1429 1921.16 1458.82 1921.16 1507.31V1509.03C1921.16 1556.66 1952.07 1587.77 2003.79 1587.77ZM2005.29 1543.14C1989.62 1543.14 1980.82 1531.98 1980.82 1508.81V1507.1C1980.82 1483.71 1990.69 1473.41 2005.07 1473.41C2019.67 1473.41 2029.97 1483.5 2029.97 1507.1V1508.81C2029.97 1531.13 2020.31 1543.14 2005.29 1543.14Z" fill="#384057"/>
<path d="M2164.41 1587.77C2208.62 1587.77 2230.94 1562.88 2230.94 1533.7C2230.94 1498.08 2206.69 1488.86 2168.71 1485.21C2155.61 1483.92 2151.54 1481.14 2151.54 1475.99C2151.54 1471.48 2154.97 1468.69 2161.84 1468.69C2169.14 1468.69 2173.21 1473.2 2173.64 1479.85H2226.44C2223.86 1444.66 2202.18 1429 2162.05 1429C2121.28 1429 2097.46 1450.45 2097.46 1480.28C2097.46 1512.89 2113.12 1525.55 2158.83 1530.48C2171.5 1531.98 2176.22 1534.56 2176.22 1539.92C2176.22 1544.64 2173.43 1548.07 2164.41 1548.07C2152.82 1548.07 2148.75 1542.28 2148.32 1534.99H2094.45C2094.88 1571.89 2120.63 1587.77 2164.41 1587.77Z" fill="#384057"/>
<path d="M2322.6 1587.77C2365.09 1587.77 2395.99 1565.45 2397.71 1523.62H2340.62C2339.34 1536.49 2331.61 1542.07 2321.1 1542.07C2306.29 1542.07 2298.56 1530.48 2298.56 1508.81V1507.1C2298.56 1484.78 2306.5 1474.06 2320.02 1474.06C2329.89 1474.06 2335.9 1480.92 2336.55 1492.51H2395.78C2391.92 1448.31 2363.8 1429 2319.81 1429C2273.45 1429 2238.26 1459.25 2238.26 1507.31V1509.03C2238.26 1556.01 2264.22 1587.77 2322.6 1587.77Z" fill="#384057"/>
<path d="M2486.86 1587.77C2539.01 1587.77 2572.7 1556.66 2572.7 1507.52V1505.81C2572.7 1455.82 2535.79 1429 2488.15 1429C2441.79 1429 2404.24 1458.82 2404.24 1507.31V1509.03C2404.24 1556.66 2435.14 1587.77 2486.86 1587.77ZM2488.36 1543.14C2472.7 1543.14 2463.9 1531.98 2463.9 1508.81V1507.1C2463.9 1483.71 2473.77 1473.41 2488.15 1473.41C2502.74 1473.41 2513.04 1483.5 2513.04 1507.1V1508.81C2513.04 1531.13 2503.39 1543.14 2488.36 1543.14Z" fill="#384057"/>
<path d="M2607.87 1584.76H2666.24L2683.84 1503.66L2701.65 1584.76H2756.38L2792 1431.36H2739.21L2723.97 1516.75L2706.16 1431.36H2658.09L2643.71 1515.68L2629.54 1431.36H2572.24L2607.87 1584.76Z" fill="#384057"/>
<path d="M1791.47 1781.38C1835.46 1781.38 1865.29 1761.64 1865.29 1713.16V1624.98H1807.78V1711.65C1807.78 1726.89 1806.49 1736.76 1791.47 1736.76C1776.23 1736.76 1774.09 1727.53 1774.09 1711.23V1624.98H1717V1712.94C1717 1758.64 1744.04 1781.38 1791.47 1781.38Z" fill="#384057"/>
<path d="M1946.16 1693.85V1667.46H1953.03C1963.76 1667.46 1968.7 1671.1 1968.7 1679.47V1680.33C1968.7 1689.34 1963.76 1693.85 1952.6 1693.85H1946.16ZM1889.29 1778.38H1946.16V1729.68H1949.38L1973.2 1778.38H2032.65L2001.1 1717.23C2014.84 1709.72 2023.64 1697.71 2023.64 1677.54V1676.68C2023.64 1643.43 2002.39 1624.98 1956.68 1624.98H1889.29V1778.38Z" fill="#384057"/>
<path d="M2046.68 1778.38H2124.37C2166.22 1778.38 2182.96 1762.5 2182.96 1735.68V1734.83C2182.96 1712.94 2169.23 1701.79 2152.27 1699.43C2169.23 1695.78 2179.74 1685.05 2179.74 1666.17V1665.31C2179.74 1644.72 2167.08 1624.98 2126.73 1624.98H2046.68V1778.38ZM2102.27 1682.91V1661.66H2113.43C2122.66 1661.66 2126.09 1665.31 2126.09 1672.18V1673.04C2126.09 1679.9 2122.44 1682.91 2113.43 1682.91H2102.27ZM2102.27 1741.48V1715.95H2111.93C2122.66 1715.95 2126.73 1720.45 2126.73 1728.17V1729.03C2126.73 1736.76 2122.23 1741.48 2112.57 1741.48H2102.27Z" fill="#384057"/>
<path d="M2264.77 1670.89L2276.79 1719.81H2252.33L2264.77 1670.89ZM2184.51 1778.38H2237.73L2242.88 1758H2286.23L2291.38 1778.38H2352.33L2305.33 1624.98H2231.72L2184.51 1778.38Z" fill="#384057"/>
<path d="M2365.03 1778.38H2415.89V1694.71L2458.39 1778.38H2512.68V1624.98H2462.04V1696.21L2428.77 1624.98H2365.03V1778.38Z" fill="#384057"/>
<path d="M1717.86 1972H1775.16V1925.22H1818.72V1883.82H1775.16V1862.36H1828.81V1818.59H1717.86V1972Z" fill="#384057"/>
<path d="M1917.86 1975C1970.01 1975 2003.7 1943.89 2003.7 1894.76V1893.04C2003.7 1843.05 1966.79 1816.23 1919.15 1816.23C1872.79 1816.23 1835.24 1846.06 1835.24 1894.54V1896.26C1835.24 1943.89 1866.14 1975 1917.86 1975ZM1919.36 1930.37C1903.69 1930.37 1894.9 1919.22 1894.9 1896.05V1894.33C1894.9 1870.94 1904.77 1860.65 1919.15 1860.65C1933.74 1860.65 1944.04 1870.73 1944.04 1894.33V1896.05C1944.04 1918.36 1934.38 1930.37 1919.36 1930.37Z" fill="#384057"/>
<path d="M2077.15 1887.46V1861.07H2084.02C2094.75 1861.07 2099.68 1864.72 2099.68 1873.09V1873.95C2099.68 1882.96 2094.75 1887.46 2083.59 1887.46H2077.15ZM2020.28 1972H2077.15V1923.29H2080.37L2104.19 1972H2163.64L2132.09 1910.85C2145.82 1903.34 2154.62 1891.33 2154.62 1871.16V1870.3C2154.62 1837.05 2133.38 1818.59 2087.66 1818.59H2020.28V1972Z" fill="#384057"/>
<path d="M2247.09 1975C2291.08 1975 2320.91 1955.26 2320.91 1906.77V1818.59H2263.4V1905.27C2263.4 1920.5 2262.11 1930.37 2247.09 1930.37C2231.85 1930.37 2229.71 1921.15 2229.71 1904.84V1818.59H2172.62V1906.56C2172.62 1952.26 2199.66 1975 2247.09 1975Z" fill="#384057"/>
<path d="M2344.91 1972H2395.56V1890.47L2424.75 1972H2444.06L2474.54 1890.47V1972H2531.41V1818.59H2459.3L2438.48 1879.95L2418.31 1818.59H2344.91V1972Z" fill="#384057"/>
<path d="M18991 5604H20107V6720H18991V5604Z" fill="white"/>
<path fill-rule="evenodd" clip-rule="evenodd" d="M20096.5 5614.48H19001.5V6709.52H20096.5V5614.48ZM18991 5604V6720H20107V5604H18991Z" fill="#EFEFEF"/>
<path d="M18988 5609L18995.1 5601.93L20106 6712.71L20098.9 6719.78L18988 5609Z" fill="#EFEFEF"/>
<path d="M18993 6725L18985.9 6717.93L20096.9 5607.15L20103.9 5614.22L18993 6725Z" fill="#EFEFEF"/>
<path d="M0 -6H1115V1109H0V-6Z" fill="white"/>
<path fill-rule="evenodd" clip-rule="evenodd" d="M439.5 349.5H355.5V433.5H439.5V349.5ZM345 339V444H450V339H345Z" fill="#2F5292"/>
<path d="M345 653H450V758H345V653Z" fill="#2F5292"/>
<path fill-rule="evenodd" clip-rule="evenodd" d="M753.5 349.5H669.5V433.5H753.5V349.5ZM659 339V444H764V339H659Z" fill="#2F5292"/>
<path d="M659 653H764V758H659V653Z" fill="#2F5292"/>
<path fill-rule="evenodd" clip-rule="evenodd" d="M18992.2 2225.3L17871.5 1104.54L17875 1101L18995.8 2221.76L18992.2 2225.3Z" fill="#999999"/>
<path d="M19803 6932H19908V6974H19803V6932Z" fill="white"/>
<path d="M19803 3131H19908V3173H19803V3131Z" fill="#9D2030"/>
<path d="M19803 7529H19908V7571H19803V7529Z" fill="white"/>
<path d="M19803 2832H19908V2874H19803V2832Z" fill="#9D2030"/>
<path d="M19803 7231H19908V7273H19803V7231Z" fill="white"/>
<g opacity="0.23">
<path d="M4058 7906.5C4058 7912.3 4053.3 7917 4047.5 7917C4041.7 7917 4037 7912.3 4037 7906.5C4037 7900.7 4041.7 7896 4047.5 7896C4053.3 7896 4058 7900.7 4058 7906.5Z" fill="black"/>
<path d="M4165 7906.5C4165 7912.3 4160.3 7917 4154.5 7917C4148.7 7917 4144 7912.3 4144 7906.5C4144 7900.7 4148.7 7896 4154.5 7896C4160.3 7896 4165 7900.7 4165 7906.5Z" fill="black"/>
<path d="M4272 7906.5C4272 7912.3 4267.3 7917 4261.5 7917C4255.7 7917 4251 7912.3 4251 7906.5C4251 7900.7 4255.7 7896 4261.5 7896C4267.3 7896 4272 7900.7 4272 7906.5Z" fill="black"/>
<path d="M4380 7906.5C4380 7912.3 4375.3 7917 4369.5 7917C4363.7 7917 4359 7912.3 4359 7906.5C4359 7900.7 4363.7 7896 4369.5 7896C4375.3 7896 4380 7900.7 4380 7906.5Z" fill="black"/>
<path d="M4487 7906.5C4487 7912.3 4482.3 7917 4476.5 7917C4470.7 7917 4466 7912.3 4466 7906.5C4466 7900.7 4470.7 7896 4476.5 7896C4482.3 7896 4487 7900.7 4487 7906.5Z" fill="black"/>
<path d="M4594 7906.5C4594 7912.3 4589.3 7917 4583.5 7917C4577.7 7917 4573 7912.3 4573 7906.5C4573 7900.7 4577.7 7896 4583.5 7896C4589.3 7896 4594 7900.7 4594 7906.5Z" fill="black"/>
<path d="M4701 7906.5C4701 7912.3 4696.3 7917 4690.5 7917C4684.7 7917 4680 7912.3 4680 7906.5C4680 7900.7 4684.7 7896 4690.5 7896C4696.3 7896 4701 7900.7 4701 7906.5Z" fill="black"/>
<path d="M4809 7906.5C4809 7912.3 4804.3 7917 4798.5 7917C4792.7 7917 4788 7912.3 4788 7906.5C4788 7900.7 4792.7 7896 4798.5 7896C4804.3 7896 4809 7900.7 4809 7906.5Z" fill="black"/>
<path d="M4916 7906.5C4916 7912.3 4911.3 7917 4905.5 7917C4899.7 7917 4895 7912.3 4895 7906.5C4895 7900.7 4899.7 7896 4905.5 7896C4911.3 7896 4916 7900.7 4916 7906.5Z" fill="black"/>
<path d="M5023 7906.5C5023 7912.3 5018.3 7917 5012.5 7917C5006.7 7917 5002 7912.3 5002 7906.5C5002 7900.7 5006.7 7896 5012.5 7896C5018.3 7896 5023 7900.7 5023 7906.5Z" fill="black"/>
<path d="M4058 8013.5C4058 8019.3 4053.3 8024 4047.5 8024C4041.7 8024 4037 8019.3 4037 8013.5C4037 8007.7 4041.7 8003 4047.5 8003C4053.3 8003 4058 8007.7 4058 8013.5Z" fill="black"/>
<path d="M4165 8013.5C4165 8019.3 4160.3 8024 4154.5 8024C4148.7 8024 4144 8019.3 4144 8013.5C4144 8007.7 4148.7 8003 4154.5 8003C4160.3 8003 4165 8007.7 4165 8013.5Z" fill="black"/>
<path d="M4272 8013.5C4272 8019.3 4267.3 8024 4261.5 8024C4255.7 8024 4251 8019.3 4251 8013.5C4251 8007.7 4255.7 8003 4261.5 8003C4267.3 8003 4272 8007.7 4272 8013.5Z" fill="black"/>
<path d="M4380 8013.5C4380 8019.3 4375.3 8024 4369.5 8024C4363.7 8024 4359 8019.3 4359 8013.5C4359 8007.7 4363.7 8003 4369.5 8003C4375.3 8003 4380 8007.7 4380 8013.5Z" fill="black"/>
<path d="M4487 8013.5C4487 8019.3 4482.3 8024 4476.5 8024C4470.7 8024 4466 8019.3 4466 8013.5C4466 8007.7 4470.7 8003 4476.5 8003C4482.3 8003 4487 8007.7 4487 8013.5Z" fill="black"/>
<path d="M4594 8013.5C4594 8019.3 4589.3 8024 4583.5 8024C4577.7 8024 4573 8019.3 4573 8013.5C4573 8007.7 4577.7 8003 4583.5 8003C4589.3 8003 4594 8007.7 4594 8013.5Z" fill="black"/>
<path d="M4701 8013.5C4701 8019.3 4696.3 8024 4690.5 8024C4684.7 8024 4680 8019.3 4680 8013.5C4680 8007.7 4684.7 8003 4690.5 8003C4696.3 8003 4701 8007.7 4701 8013.5Z" fill="black"/>
<path d="M4809 8013.5C4809 8019.3 4804.3 8024 4798.5 8024C4792.7 8024 4788 8019.3 4788 8013.5C4788 8007.7 4792.7 8003 4798.5 8003C4804.3 8003 4809 8007.7 4809 8013.5Z" fill="black"/>
<path d="M4916 8013.5C4916 8019.3 4911.3 8024 4905.5 8024C4899.7 8024 4895 8019.3 4895 8013.5C4895 8007.7 4899.7 8003 4905.5 8003C4911.3 8003 4916 8007.7 4916 8013.5Z" fill="black"/>
<path d="M5023 8013.5C5023 8019.3 5018.3 8024 5012.5 8024C5006.7 8024 5002 8019.3 5002 8013.5C5002 8007.7 5006.7 8003 5012.5 8003C5018.3 8003 5023 8007.7 5023 8013.5Z" fill="black"/>
<path d="M4058 8120.5C4058 8126.3 4053.3 8131 4047.5 8131C4041.7 8131 4037 8126.3 4037 8120.5C4037 8114.7 4041.7 8110 4047.5 8110C4053.3 8110 4058 8114.7 4058 8120.5Z" fill="black"/>
<path d="M4165 8120.5C4165 8126.3 4160.3 8131 4154.5 8131C4148.7 8131 4144 8126.3 4144 8120.5C4144 8114.7 4148.7 8110 4154.5 8110C4160.3 8110 4165 8114.7 4165 8120.5Z" fill="black"/>
<path d="M4272 8120.5C4272 8126.3 4267.3 8131 4261.5 8131C4255.7 8131 4251 8126.3 4251 8120.5C4251 8114.7 4255.7 8110 4261.5 8110C4267.3 8110 4272 8114.7 4272 8120.5Z" fill="black"/>
<path d="M4380 8120.5C4380 8126.3 4375.3 8131 4369.5 8131C4363.7 8131 4359 8126.3 4359 8120.5C4359 8114.7 4363.7 8110 4369.5 8110C4375.3 8110 4380 8114.7 4380 8120.5Z" fill="black"/>
<path d="M4487 8120.5C4487 8126.3 4482.3 8131 4476.5 8131C4470.7 8131 4466 8126.3 4466 8120.5C4466 8114.7 4470.7 8110 4476.5 8110C4482.3 8110 4487 8114.7 4487 8120.5Z" fill="black"/>
<path d="M4594 8120.5C4594 8126.3 4589.3 8131 4583.5 8131C4577.7 8131 4573 8126.3 4573 8120.5C4573 8114.7 4577.7 8110 4583.5 8110C4589.3 8110 4594 8114.7 4594 8120.5Z" fill="black"/>
<path d="M4701 8120.5C4701 8126.3 4696.3 8131 4690.5 8131C4684.7 8131 4680 8126.3 4680 8120.5C4680 8114.7 4684.7 8110 4690.5 8110C4696.3 8110 4701 8114.7 4701 8120.5Z" fill="black"/>
<path d="M4809 8120.5C4809 8126.3 4804.3 8131 4798.5 8131C4792.7 8131 4788 8126.3 4788 8120.5C4788 8114.7 4792.7 8110 4798.5 8110C4804.3 8110 4809 8114.7 4809 8120.5Z" fill="black"/>
<path d="M4916 8120.5C4916 8126.3 4911.3 8131 4905.5 8131C4899.7 8131 4895 8126.3 4895 8120.5C4895 8114.7 4899.7 8110 4905.5 8110C4911.3 8110 4916 8114.7 4916 8120.5Z" fill="black"/>
<path d="M5023 8120.5C5023 8126.3 5018.3 8131 5012.5 8131C5006.7 8131 5002 8126.3 5002 8120.5C5002 8114.7 5006.7 8110 5012.5 8110C5018.3 8110 5023 8114.7 5023 8120.5Z" fill="black"/>
<path d="M4058 8228.5C4058 8234.3 4053.3 8239 4047.5 8239C4041.7 8239 4037 8234.3 4037 8228.5C4037 8222.7 4041.7 8218 4047.5 8218C4053.3 8218 4058 8222.7 4058 8228.5Z" fill="black"/>
<path d="M4165 8228.5C4165 8234.3 4160.3 8239 4154.5 8239C4148.7 8239 4144 8234.3 4144 8228.5C4144 8222.7 4148.7 8218 4154.5 8218C4160.3 8218 4165 8222.7 4165 8228.5Z" fill="black"/>
<path d="M4272 8228.5C4272 8234.3 4267.3 8239 4261.5 8239C4255.7 8239 4251 8234.3 4251 8228.5C4251 8222.7 4255.7 8218 4261.5 8218C4267.3 8218 4272 8222.7 4272 8228.5Z" fill="black"/>
<path d="M4380 8228.5C4380 8234.3 4375.3 8239 4369.5 8239C4363.7 8239 4359 8234.3 4359 8228.5C4359 8222.7 4363.7 8218 4369.5 8218C4375.3 8218 4380 8222.7 4380 8228.5Z" fill="black"/>
<path d="M4487 8228.5C4487 8234.3 4482.3 8239 4476.5 8239C4470.7 8239 4466 8234.3 4466 8228.5C4466 8222.7 4470.7 8218 4476.5 8218C4482.3 8218 4487 8222.7 4487 8228.5Z" fill="black"/>
<path d="M4594 8228.5C4594 8234.3 4589.3 8239 4583.5 8239C4577.7 8239 4573 8234.3 4573 8228.5C4573 8222.7 4577.7 8218 4583.5 8218C4589.3 8218 4594 8222.7 4594 8228.5Z" fill="black"/>
<path d="M4701 8228.5C4701 8234.3 4696.3 8239 4690.5 8239C4684.7 8239 4680 8234.3 4680 8228.5C4680 8222.7 4684.7 8218 4690.5 8218C4696.3 8218 4701 8222.7 4701 8228.5Z" fill="black"/>
<path d="M4809 8228.5C4809 8234.3 4804.3 8239 4798.5 8239C4792.7 8239 4788 8234.3 4788 8228.5C4788 8222.7 4792.7 8218 4798.5 8218C4804.3 8218 4809 8222.7 4809 8228.5Z" fill="black"/>
<path d="M4916 8228.5C4916 8234.3 4911.3 8239 4905.5 8239C4899.7 8239 4895 8234.3 4895 8228.5C4895 8222.7 4899.7 8218 4905.5 8218C4911.3 8218 4916 8222.7 4916 8228.5Z" fill="black"/>
<path d="M5023 8228.5C5023 8234.3 5018.3 8239 5012.5 8239C5006.7 8239 5002 8234.3 5002 8228.5C5002 8222.7 5006.7 8218 5012.5 8218C5018.3 8218 5023 8222.7 5023 8228.5Z" fill="black"/>
<path d="M4058 8335.5C4058 8341.3 4053.3 8346 4047.5 8346C4041.7 8346 4037 8341.3 4037 8335.5C4037 8329.7 4041.7 8325 4047.5 8325C4053.3 8325 4058 8329.7 4058 8335.5Z" fill="black"/>
<path d="M4165 8335.5C4165 8341.3 4160.3 8346 4154.5 8346C4148.7 8346 4144 8341.3 4144 8335.5C4144 8329.7 4148.7 8325 4154.5 8325C4160.3 8325 4165 8329.7 4165 8335.5Z" fill="black"/>
<path d="M4272 8335.5C4272 8341.3 4267.3 8346 4261.5 8346C4255.7 8346 4251 8341.3 4251 8335.5C4251 8329.7 4255.7 8325 4261.5 8325C4267.3 8325 4272 8329.7 4272 8335.5Z" fill="black"/>
<path d="M4380 8335.5C4380 8341.3 4375.3 8346 4369.5 8346C4363.7 8346 4359 8341.3 4359 8335.5C4359 8329.7 4363.7 8325 4369.5 8325C4375.3 8325 4380 8329.7 4380 8335.5Z" fill="black"/>
<path d="M4487 8335.5C4487 8341.3 4482.3 8346 4476.5 8346C4470.7 8346 4466 8341.3 4466 8335.5C4466 8329.7 4470.7 8325 4476.5 8325C4482.3 8325 4487 8329.7 4487 8335.5Z" fill="black"/>
<path d="M4594 8335.5C4594 8341.3 4589.3 8346 4583.5 8346C4577.7 8346 4573 8341.3 4573 8335.5C4573 8329.7 4577.7 8325 4583.5 8325C4589.3 8325 4594 8329.7 4594 8335.5Z" fill="black"/>
<path d="M4701 8335.5C4701 8341.3 4696.3 8346 4690.5 8346C4684.7 8346 4680 8341.3 4680 8335.5C4680 8329.7 4684.7 8325 4690.5 8325C4696.3 8325 4701 8329.7 4701 8335.5Z" fill="black"/>
<path d="M4809 8335.5C4809 8341.3 4804.3 8346 4798.5 8346C4792.7 8346 4788 8341.3 4788 8335.5C4788 8329.7 4792.7 8325 4798.5 8325C4804.3 8325 4809 8329.7 4809 8335.5Z" fill="black"/>
<path d="M4916 8335.5C4916 8341.3 4911.3 8346 4905.5 8346C4899.7 8346 4895 8341.3 4895 8335.5C4895 8329.7 4899.7 8325 4905.5 8325C4911.3 8325 4916 8329.7 4916 8335.5Z" fill="black"/>
<path d="M5023 8335.5C5023 8341.3 5018.3 8346 5012.5 8346C5006.7 8346 5002 8341.3 5002 8335.5C5002 8329.7 5006.7 8325 5012.5 8325C5018.3 8325 5023 8329.7 5023 8335.5Z" fill="black"/>
<path d="M4058 8442.5C4058 8448.3 4053.3 8453 4047.5 8453C4041.7 8453 4037 8448.3 4037 8442.5C4037 8436.7 4041.7 8432 4047.5 8432C4053.3 8432 4058 8436.7 4058 8442.5Z" fill="black"/>
<path d="M4165 8442.5C4165 8448.3 4160.3 8453 4154.5 8453C4148.7 8453 4144 8448.3 4144 8442.5C4144 8436.7 4148.7 8432 4154.5 8432C4160.3 8432 4165 8436.7 4165 8442.5Z" fill="black"/>
<path d="M4272 8442.5C4272 8448.3 4267.3 8453 4261.5 8453C4255.7 8453 4251 8448.3 4251 8442.5C4251 8436.7 4255.7 8432 4261.5 8432C4267.3 8432 4272 8436.7 4272 8442.5Z" fill="black"/>
<path d="M4380 8442.5C4380 8448.3 4375.3 8453 4369.5 8453C4363.7 8453 4359 8448.3 4359 8442.5C4359 8436.7 4363.7 8432 4369.5 8432C4375.3 8432 4380 8436.7 4380 8442.5Z" fill="black"/>
<path d="M4487 8442.5C4487 8448.3 4482.3 8453 4476.5 8453C4470.7 8453 4466 8448.3 4466 8442.5C4466 8436.7 4470.7 8432 4476.5 8432C4482.3 8432 4487 8436.7 4487 8442.5Z" fill="black"/>
<path d="M4594 8442.5C4594 8448.3 4589.3 8453 4583.5 8453C4577.7 8453 4573 8448.3 4573 8442.5C4573 8436.7 4577.7 8432 4583.5 8432C4589.3 8432 4594 8436.7 4594 8442.5Z" fill="black"/>
<path d="M4701 8442.5C4701 8448.3 4696.3 8453 4690.5 8453C4684.7 8453 4680 8448.3 4680 8442.5C4680 8436.7 4684.7 8432 4690.5 8432C4696.3 8432 4701 8436.7 4701 8442.5Z" fill="black"/>
<path d="M4809 8442.5C4809 8448.3 4804.3 8453 4798.5 8453C4792.7 8453 4788 8448.3 4788 8442.5C4788 8436.7 4792.7 8432 4798.5 8432C4804.3 8432 4809 8436.7 4809 8442.5Z" fill="black"/>
<path d="M4916 8442.5C4916 8448.3 4911.3 8453 4905.5 8453C4899.7 8453 4895 8448.3 4895 8442.5C4895 8436.7 4899.7 8432 4905.5 8432C4911.3 8432 4916 8436.7 4916 8442.5Z" fill="black"/>
<path d="M5023 8442.5C5023 8448.3 5018.3 8453 5012.5 8453C5006.7 8453 5002 8448.3 5002 8442.5C5002 8436.7 5006.7 8432 5012.5 8432C5018.3 8432 5023 8436.7 5023 8442.5Z" fill="black"/>
<path d="M4058 8549.5C4058 8555.3 4053.3 8560 4047.5 8560C4041.7 8560 4037 8555.3 4037 8549.5C4037 8543.7 4041.7 8539 4047.5 8539C4053.3 8539 4058 8543.7 4058 8549.5Z" fill="black"/>
<path d="M4165 8549.5C4165 8555.3 4160.3 8560 4154.5 8560C4148.7 8560 4144 8555.3 4144 8549.5C4144 8543.7 4148.7 8539 4154.5 8539C4160.3 8539 4165 8543.7 4165 8549.5Z" fill="black"/>
<path d="M4272 8549.5C4272 8555.3 4267.3 8560 4261.5 8560C4255.7 8560 4251 8555.3 4251 8549.5C4251 8543.7 4255.7 8539 4261.5 8539C4267.3 8539 4272 8543.7 4272 8549.5Z" fill="black"/>
<path d="M4380 8549.5C4380 8555.3 4375.3 8560 4369.5 8560C4363.7 8560 4359 8555.3 4359 8549.5C4359 8543.7 4363.7 8539 4369.5 8539C4375.3 8539 4380 8543.7 4380 8549.5Z" fill="black"/>
<path d="M4487 8549.5C4487 8555.3 4482.3 8560 4476.5 8560C4470.7 8560 4466 8555.3 4466 8549.5C4466 8543.7 4470.7 8539 4476.5 8539C4482.3 8539 4487 8543.7 4487 8549.5Z" fill="black"/>
<path d="M4594 8549.5C4594 8555.3 4589.3 8560 4583.5 8560C4577.7 8560 4573 8555.3 4573 8549.5C4573 8543.7 4577.7 8539 4583.5 8539C4589.3 8539 4594 8543.7 4594 8549.5Z" fill="black"/>
<path d="M4701 8549.5C4701 8555.3 4696.3 8560 4690.5 8560C4684.7 8560 4680 8555.3 4680 8549.5C4680 8543.7 4684.7 8539 4690.5 8539C4696.3 8539 4701 8543.7 4701 8549.5Z" fill="black"/>
<path d="M4809 8549.5C4809 8555.3 4804.3 8560 4798.5 8560C4792.7 8560 4788 8555.3 4788 8549.5C4788 8543.7 4792.7 8539 4798.5 8539C4804.3 8539 4809 8543.7 4809 8549.5Z" fill="black"/>
<path d="M4916 8549.5C4916 8555.3 4911.3 8560 4905.5 8560C4899.7 8560 4895 8555.3 4895 8549.5C4895 8543.7 4899.7 8539 4905.5 8539C4911.3 8539 4916 8543.7 4916 8549.5Z" fill="black"/>
<path d="M5023 8549.5C5023 8555.3 5018.3 8560 5012.5 8560C5006.7 8560 5002 8555.3 5002 8549.5C5002 8543.7 5006.7 8539 5012.5 8539C5018.3 8539 5023 8543.7 5023 8549.5Z" fill="black"/>
<path d="M4058 8657.5C4058 8663.3 4053.3 8668 4047.5 8668C4041.7 8668 4037 8663.3 4037 8657.5C4037 8651.7 4041.7 8647 4047.5 8647C4053.3 8647 4058 8651.7 4058 8657.5Z" fill="black"/>
<path d="M4165 8657.5C4165 8663.3 4160.3 8668 4154.5 8668C4148.7 8668 4144 8663.3 4144 8657.5C4144 8651.7 4148.7 8647 4154.5 8647C4160.3 8647 4165 8651.7 4165 8657.5Z" fill="black"/>
<path d="M4272 8657.5C4272 8663.3 4267.3 8668 4261.5 8668C4255.7 8668 4251 8663.3 4251 8657.5C4251 8651.7 4255.7 8647 4261.5 8647C4267.3 8647 4272 8651.7 4272 8657.5Z" fill="black"/>
<path d="M4380 8657.5C4380 8663.3 4375.3 8668 4369.5 8668C4363.7 8668 4359 8663.3 4359 8657.5C4359 8651.7 4363.7 8647 4369.5 8647C4375.3 8647 4380 8651.7 4380 8657.5Z" fill="black"/>
<path d="M4487 8657.5C4487 8663.3 4482.3 8668 4476.5 8668C4470.7 8668 4466 8663.3 4466 8657.5C4466 8651.7 4470.7 8647 4476.5 8647C4482.3 8647 4487 8651.7 4487 8657.5Z" fill="black"/>
<path d="M4594 8657.5C4594 8663.3 4589.3 8668 4583.5 8668C4577.7 8668 4573 8663.3 4573 8657.5C4573 8651.7 4577.7 8647 4583.5 8647C4589.3 8647 4594 8651.7 4594 8657.5Z" fill="black"/>
<path d="M4701 8657.5C4701 8663.3 4696.3 8668 4690.5 8668C4684.7 8668 4680 8663.3 4680 8657.5C4680 8651.7 4684.7 8647 4690.5 8647C4696.3 8647 4701 8651.7 4701 8657.5Z" fill="black"/>
<path d="M4809 8657.5C4809 8663.3 4804.3 8668 4798.5 8668C4792.7 8668 4788 8663.3 4788 8657.5C4788 8651.7 4792.7 8647 4798.5 8647C4804.3 8647 4809 8651.7 4809 8657.5Z" fill="black"/>
<path d="M4916 8657.5C4916 8663.3 4911.3 8668 4905.5 8668C4899.7 8668 4895 8663.3 4895 8657.5C4895 8651.7 4899.7 8647 4905.5 8647C4911.3 8647 4916 8651.7 4916 8657.5Z" fill="black"/>
<path d="M5023 8657.5C5023 8663.3 5018.3 8668 5012.5 8668C5006.7 8668 5002 8663.3 5002 8657.5C5002 8651.7 5006.7 8647 5012.5 8647C5018.3 8647 5023 8651.7 5023 8657.5Z" fill="black"/>
<path d="M4058 8764.5C4058 8770.3 4053.3 8775 4047.5 8775C4041.7 8775 4037 8770.3 4037 8764.5C4037 8758.7 4041.7 8754 4047.5 8754C4053.3 8754 4058 8758.7 4058 8764.5Z" fill="black"/>
<path d="M4165 8764.5C4165 8770.3 4160.3 8775 4154.5 8775C4148.7 8775 4144 8770.3 4144 8764.5C4144 8758.7 4148.7 8754 4154.5 8754C4160.3 8754 4165 8758.7 4165 8764.5Z" fill="black"/>
<path d="M4272 8764.5C4272 8770.3 4267.3 8775 4261.5 8775C4255.7 8775 4251 8770.3 4251 8764.5C4251 8758.7 4255.7 8754 4261.5 8754C4267.3 8754 4272 8758.7 4272 8764.5Z" fill="black"/>
<path d="M4380 8764.5C4380 8770.3 4375.3 8775 4369.5 8775C4363.7 8775 4359 8770.3 4359 8764.5C4359 8758.7 4363.7 8754 4369.5 8754C4375.3 8754 4380 8758.7 4380 8764.5Z" fill="black"/>
<path d="M4487 8764.5C4487 8770.3 4482.3 8775 4476.5 8775C4470.7 8775 4466 8770.3 4466 8764.5C4466 8758.7 4470.7 8754 4476.5 8754C4482.3 8754 4487 8758.7 4487 8764.5Z" fill="black"/>
<path d="M4594 8764.5C4594 8770.3 4589.3 8775 4583.5 8775C4577.7 8775 4573 8770.3 4573 8764.5C4573 8758.7 4577.7 8754 4583.5 8754C4589.3 8754 4594 8758.7 4594 8764.5Z" fill="black"/>
<path d="M4701 8764.5C4701 8770.3 4696.3 8775 4690.5 8775C4684.7 8775 4680 8770.3 4680 8764.5C4680 8758.7 4684.7 8754 4690.5 8754C4696.3 8754 4701 8758.7 4701 8764.5Z" fill="black"/>
<path d="M4809 8764.5C4809 8770.3 4804.3 8775 4798.5 8775C4792.7 8775 4788 8770.3 4788 8764.5C4788 8758.7 4792.7 8754 4798.5 8754C4804.3 8754 4809 8758.7 4809 8764.5Z" fill="black"/>
<path d="M4916 8764.5C4916 8770.3 4911.3 8775 4905.5 8775C4899.7 8775 4895 8770.3 4895 8764.5C4895 8758.7 4899.7 8754 4905.5 8754C4911.3 8754 4916 8758.7 4916 8764.5Z" fill="black"/>
<path d="M5023 8764.5C5023 8770.3 5018.3 8775 5012.5 8775C5006.7 8775 5002 8770.3 5002 8764.5C5002 8758.7 5006.7 8754 5012.5 8754C5018.3 8754 5023 8758.7 5023 8764.5Z" fill="black"/>
<path d="M4058 8871.5C4058 8877.3 4053.3 8882 4047.5 8882C4041.7 8882 4037 8877.3 4037 8871.5C4037 8865.7 4041.7 8861 4047.5 8861C4053.3 8861 4058 8865.7 4058 8871.5Z" fill="black"/>
<path d="M4165 8871.5C4165 8877.3 4160.3 8882 4154.5 8882C4148.7 8882 4144 8877.3 4144 8871.5C4144 8865.7 4148.7 8861 4154.5 8861C4160.3 8861 4165 8865.7 4165 8871.5Z" fill="black"/>
<path d="M4272 8871.5C4272 8877.3 4267.3 8882 4261.5 8882C4255.7 8882 4251 8877.3 4251 8871.5C4251 8865.7 4255.7 8861 4261.5 8861C4267.3 8861 4272 8865.7 4272 8871.5Z" fill="black"/>
<path d="M4380 8871.5C4380 8877.3 4375.3 8882 4369.5 8882C4363.7 8882 4359 8877.3 4359 8871.5C4359 8865.7 4363.7 8861 4369.5 8861C4375.3 8861 4380 8865.7 4380 8871.5Z" fill="black"/>
<path d="M4487 8871.5C4487 8877.3 4482.3 8882 4476.5 8882C4470.7 8882 4466 8877.3 4466 8871.5C4466 8865.7 4470.7 8861 4476.5 8861C4482.3 8861 4487 8865.7 4487 8871.5Z" fill="black"/>
<path d="M4594 8871.5C4594 8877.3 4589.3 8882 4583.5 8882C4577.7 8882 4573 8877.3 4573 8871.5C4573 8865.7 4577.7 8861 4583.5 8861C4589.3 8861 4594 8865.7 4594 8871.5Z" fill="black"/>
<path d="M4701 8871.5C4701 8877.3 4696.3 8882 4690.5 8882C4684.7 8882 4680 8877.3 4680 8871.5C4680 8865.7 4684.7 8861 4690.5 8861C4696.3 8861 4701 8865.7 4701 8871.5Z" fill="black"/>
<path d="M4809 8871.5C4809 8877.3 4804.3 8882 4798.5 8882C4792.7 8882 4788 8877.3 4788 8871.5C4788 8865.7 4792.7 8861 4798.5 8861C4804.3 8861 4809 8865.7 4809 8871.5Z" fill="black"/>
<path d="M4916 8871.5C4916 8877.3 4911.3 8882 4905.5 8882C4899.7 8882 4895 8877.3 4895 8871.5C4895 8865.7 4899.7 8861 4905.5 8861C4911.3 8861 4916 8865.7 4916 8871.5Z" fill="black"/>
<path d="M5023 8871.5C5023 8877.3 5018.3 8882 5012.5 8882C5006.7 8882 5002 8877.3 5002 8871.5C5002 8865.7 5006.7 8861 5012.5 8861C5018.3 8861 5023 8865.7 5023 8871.5Z" fill="black"/>
</g>
<path fill-rule="evenodd" clip-rule="evenodd" d="M8634.55 10435.5H8483V10425H8645V10587H8634.55V10435.5Z" fill="#CBCBCB"/>
<path fill-rule="evenodd" clip-rule="evenodd" d="M8121.45 10948.5L8273 10948.5L8273 10959L8111 10959L8111 10797L8121.45 10797L8121.45 10948.5Z" fill="#CBCBCB"/>
<defs>
<linearGradient id="paint0_linear_301_164" x1="-1320" y1="2405" x2="-1320" y2="3490" gradientUnits="userSpaceOnUse">
<stop stop-color="#BABABA"/>
<stop offset="1" stop-color="#E1E1E1"/>
</linearGradient>
<linearGradient id="paint1_linear_301_164" x1="3549" y1="3273" x2="3549" y2="4358" gradientUnits="userSpaceOnUse">
<stop stop-color="#BABABA"/>
<stop offset="1" stop-color="#E1E1E1"/>
</linearGradient>
<linearGradient id="paint2_linear_301_164" x1="16918" y1="9322" x2="16918" y2="10407" gradientUnits="userSpaceOnUse">
<stop stop-color="#BABABA"/>
<stop offset="1" stop-color="#E1E1E1"/>
</linearGradient>
<linearGradient id="paint3_linear_301_164" x1="21787" y1="10190" x2="21787" y2="11275" gradientUnits="userSpaceOnUse">
<stop stop-color="#BABABA"/>
<stop offset="1" stop-color="#E1E1E1"/>
</linearGradient>
</defs>
</svg>
