<svg width="220" height="220" viewBox="0 0 220 220" fill="none" xmlns="http://www.w3.org/2000/svg">
<path d="M110 58.3322C103.897 58.3322 97.9311 60.1503 92.8567 63.5565C87.7823 66.9627 83.8272 71.8041 81.4917 77.4685C79.1562 83.1329 78.5451 89.3658 79.7358 95.379C80.9264 101.392 83.8653 106.916 88.1807 111.251C92.4962 115.586 97.9944 118.539 103.98 119.735C109.966 120.931 116.17 120.317 121.809 117.971C127.447 115.625 132.266 111.651 135.657 106.554C139.047 101.456 140.857 95.4624 140.857 89.3314C140.857 81.1099 137.606 73.2251 131.819 67.4117C126.032 61.5982 118.184 58.3322 110 58.3322ZM110 113.442C105.253 113.442 100.613 112.028 96.6663 109.378C92.7195 106.729 89.6434 102.964 87.8269 98.558C86.0104 94.1524 85.5351 89.3046 86.4612 84.6276C87.3872 79.9507 89.673 75.6546 93.0294 72.2827C96.3859 68.9108 100.662 66.6145 105.318 65.6842C109.973 64.7539 114.799 65.2313 119.184 67.0562C123.57 68.8811 127.318 71.9714 129.955 75.9363C132.592 79.9013 134 84.5628 134 89.3314C133.977 95.7189 131.442 101.838 126.946 106.355C122.45 110.872 116.358 113.419 110 113.442ZM110 17C90.9114 17.0228 72.6111 24.6507 59.1134 38.2105C45.6157 51.7704 38.0227 70.1549 38 89.3314C38 115.508 50.1714 143.408 73.1429 169.929C83.5636 181.991 95.2612 192.876 108.029 202.392C108.61 202.788 109.297 203 110 203C110.703 203 111.39 202.788 111.971 202.392C124.739 192.876 136.436 181.991 146.857 169.929C169.829 143.408 182 115.508 182 89.3314C181.977 70.1549 174.384 51.7704 160.887 38.2105C147.389 24.6507 129.089 17.0228 110 17ZM141.8 165.279C132.275 176.36 121.616 186.404 110 195.245C98.4037 186.38 87.7474 176.339 78.2 165.279C63.0286 147.713 44.8571 120.244 44.8571 89.3314C44.8571 71.9749 51.7204 55.3293 63.937 43.0564C76.1537 30.7835 92.723 23.8887 110 23.8887C127.277 23.8887 143.846 30.7835 156.063 43.0564C168.28 55.3293 175.143 71.9749 175.143 89.3314C175.143 120.244 157.057 147.713 141.8 165.279Z" fill="black"/>
</svg>
