<?xml version="1.0" encoding="utf-8"?>
<!-- Generator: Adobe Illustrator 24.1.1, SVG Export Plug-In . SVG Version: 6.00 Build 0)  -->
<svg version="1.1" id="Layer_1" xmlns="http://www.w3.org/2000/svg" xmlns:xlink="http://www.w3.org/1999/xlink" x="0px" y="0px"
	 viewBox="0 0 512 512" style="enable-background:new 0 0 512 512;" xml:space="preserve">
<style type="text/css">
	.st0{fill-rule:evenodd;clip-rule:evenodd;}
</style>
<g>
	<path class="st0" d="M230.6,44.6c13.2-14.1,35.2-14.8,49.2-1.6l1.6,1.6l221,235.8c20.9,22.2,5.1,58.7-25.4,58.7h-99.1v104.5
		c0,19.2-15.6,34.8-34.8,34.8H168.9c-19.2,0-34.8-15.6-34.8-34.8V339.1H34.9c-30.5,0-46.3-36.4-25.4-58.7L230.6,44.6z M477.1,304.3
		L256,68.4L34.9,304.3h99.1c19.3,0,34.8,15.6,34.8,34.8v104.5h174.2V339.1c0-19.3,15.6-34.8,34.8-34.8H477.1z"/>
</g>
</svg>
