<svg width="277" height="211" viewBox="0 0 277 211" fill="none" xmlns="http://www.w3.org/2000/svg">
<path fill-rule="evenodd" clip-rule="evenodd" d="M275.442 108.905C277.262 107.085 277.385 104.21 275.813 102.247C275.489 100.106 273.807 98.4102 271.673 98.0648L175.433 1.82397C173.48 -0.128823 170.314 -0.128825 168.361 1.82397C166.408 3.77677 166.408 6.94288 168.361 8.89568L257.466 98.0004H5.20816C2.4465 98.0004 0.207703 100.239 0.207703 103.001C0.207703 105.763 2.4465 108.001 5.20816 108.001H262.202L168.361 201.842C166.408 203.795 166.408 206.961 168.361 208.914C170.314 210.867 173.48 210.867 175.433 208.914L275.442 108.905Z" fill="white"/>
</svg>
